<svg xmlns="http://www.w3.org/2000/svg" xmlns:xlink="http://www.w3.org/1999/xlink" xmlns:lucid="lucid" width="1597" height="827"><g transform="translate(-685 -811)" lucid:page-tab-id="BlRs0-3wSJWV"><path d="M-500-500h3000v2500H-500z" fill="#f2f3f5"/><path d="M1200 846a6 6 0 0 1 6-6h1028a6 6 0 0 1 6 6v748a6 6 0 0 1-6 6H1206a6 6 0 0 1-6-6z" stroke="#3a414a" stroke-width="3" fill="#b8f5ed"/><path d="M1283.7 1166a6 6 0 0 1 6-6H2154a6 6 0 0 1 6 6v228a6 6 0 0 1-6 6h-864.3a6 6 0 0 1-6-6z" stroke="#3a414a" stroke-width="3" fill="#e8e2c8"/><path d="M1282 1166a6 6 0 0 1 6-6h188a6 6 0 0 1 6 6v48a6 6 0 0 1-6 6h-188a6 6 0 0 1-6-6z" stroke="#000" stroke-opacity="0" stroke-width="3" fill="#fff" fill-opacity="0"/><use xlink:href="#a" transform="matrix(1,0,0,1,1286.9967804378794,1165) translate(40.219444444444456 30.175)"/><use xlink:href="#b" transform="matrix(1,0,0,1,1286.9967804378794,1165) translate(106.51944444444445 30.175)"/><path d="M1598.84 1020c0 6.63-33 12-73.75 12-40.74 0-73.76-5.37-73.76-12v-96c0-6.63 33.02-12 73.75-12s73.74 5.37 73.74 12z" stroke="#3a414a" stroke-width="3" fill="#fff"/><path d="M1598.84 924c0 6.63-33 12-73.75 12-40.74 0-73.76-5.37-73.76-12" stroke="#3a414a" stroke-width="3" fill="none"/><use xlink:href="#c" transform="matrix(1,0,0,1,1456.3440072763526,941.0000186535692) translate(5.588888888888889 47.675)"/><path d="M1525.1 1044.6v142.8" stroke="#3a414a" stroke-width="3" fill="none"/><path d="M1525.1 1036.45l7.63 12.9h-15.27zM1525.1 1195.55l-7.64-12.9h15.27z" stroke="#3a414a" stroke-width="3" fill="#3a414a"/><path d="M1853.96 1028.54c0 6.66-22.76 12.07-50.84 12.07-28.1 0-50.85-5.4-50.85-12.06v-96.48c0-6.66 22.76-12.06 50.85-12.06 28.08 0 50.84 5.4 50.84 12.06z" stroke="#3a414a" stroke-width="3" fill="#fff"/><path d="M1853.96 932.06c0 6.66-22.76 12.06-50.84 12.06-28.1 0-50.85-5.4-50.85-12.06" stroke="#3a414a" stroke-width="3" fill="none"/><use xlink:href="#d" transform="matrix(1,0,0,1,1757.2686534833183,949.120901034615) translate(27.980555555555558 47.9875)"/><path d="M1803.12 1053.2v134.2" stroke="#3a414a" stroke-width="3" fill="none"/><path d="M1803.12 1045.05l7.63 12.9h-15.27zM1803.12 1195.55l-7.64-12.9h15.27z" stroke="#3a414a" stroke-width="3" fill="#3a414a"/><path d="M1157.12 846a6 6 0 0 1 6-6h388a6 6 0 0 1 6 6v60.4a6 6 0 0 1-6 6h-388a6 6 0 0 1-6-6z" stroke="#000" stroke-opacity="0" stroke-width="3" fill="#fff" fill-opacity="0"/><use xlink:href="#e" transform="matrix(1,0,0,1,1162.1166646839633,845) translate(51.638888888888914 36.55)"/><use xlink:href="#f" transform="matrix(1,0,0,1,1162.1166646839633,845) translate(179.83333333333334 36.55)"/><path d="M1320 1206a6 6 0 0 1 6-6h808.1a6 6 0 0 1 6 6v64.57a6 6 0 0 1-6 6H1326a6 6 0 0 1-6-6z" stroke="#3a414a" stroke-width="3" fill="#ffe342"/><use xlink:href="#g" transform="matrix(1,0,0,1,1332,1212) translate(342.34722222222223 30.7375)"/><use xlink:href="#h" transform="matrix(1,0,0,1,1332,1212) translate(385.60833333333335 30.7375)"/><path d="M1519.86 1486a6 6 0 0 1 6-6h188a6 6 0 0 1 6 6v64.57a6 6 0 0 1-6 6h-188a6 6 0 0 1-6-6z" stroke="#3a414a" stroke-width="3" fill="#fc9432"/><use xlink:href="#i" transform="matrix(1,0,0,1,1524.8555299919553,1485) translate(40.219444444444456 22.89375)"/><use xlink:href="#j" transform="matrix(1,0,0,1,1524.8555299919553,1485) translate(56.03611111111111 54.09375)"/><path d="M883 1280h388.1" stroke="#3a414a" stroke-width="3" stroke-linejoin="round" fill="none"/><path d="M883.04 1281.47h-1.54v-2.94h1.54z" stroke="#3a414a" stroke-width=".05" fill="#3a414a"/><path d="M1279.26 1280l-12.9 7.64v-15.28z" stroke="#3a414a" stroke-width="3" fill="#3a414a"/><path d="M721.5 1086a6 6 0 0 1 6-6H874a6 6 0 0 1 6 6v388a6 6 0 0 1-6 6H727.5a6 6 0 0 1-6-6z" stroke="#3a414a" stroke-width="3" fill="#fff"/><path d="M721.5 1086a6 6 0 0 1 6-6h148a6 6 0 0 1 6 6v88a6 6 0 0 1-6 6h-148a6 6 0 0 1-6-6z" stroke="#3a414a" stroke-width="3" fill="#54c45e"/><use xlink:href="#k" transform="matrix(1,0,0,1,733.4999500000006,1092) translate(40.59166666666667 42.175)"/><path d="M721.5 1186a6 6 0 0 1 6-6h148a6 6 0 0 1 6 6v88a6 6 0 0 1-6 6h-148a6 6 0 0 1-6-6z" stroke="#3a414a" stroke-width="3" fill="#c3f7c8"/><use xlink:href="#l" transform="matrix(1,0,0,1,733.4999500000006,1192) translate(21.669444444444444 27.925)"/><use xlink:href="#m" transform="matrix(1,0,0,1,733.4999500000006,1192) translate(24.738888888888887 59.125)"/><path d="M721.5 1286a6 6 0 0 1 6-6h148a6 6 0 0 1 6 6v88a6 6 0 0 1-6 6h-148a6 6 0 0 1-6-6z" stroke="#3a414a" stroke-width="3" fill="#c3f7c8"/><use xlink:href="#n" transform="matrix(1,0,0,1,733.4999500000006,1292) translate(0.9777777777777885 42.175)"/><use xlink:href="#o" transform="matrix(1,0,0,1,733.4999500000006,1292) translate(78.83333333333334 42.175)"/><path d="M720 1386a6 6 0 0 1 6-6h148a6 6 0 0 1 6 6v88a6 6 0 0 1-6 6H726a6 6 0 0 1-6-6z" stroke="#3a414a" stroke-width="3" fill="#54c45e"/><use xlink:href="#p" transform="matrix(1,0,0,1,732,1392) translate(38.49722222222223 42.175)"/><path d="M1743.94 1486a6 6 0 0 1 6-6h188a6 6 0 0 1 6 6v64.57a6 6 0 0 1-6 6h-188a6 6 0 0 1-6-6z" stroke="#3a414a" stroke-width="3" fill="#54c45e"/><use xlink:href="#q" transform="matrix(1,0,0,1,1748.937465320847,1485) translate(40.869444444444454 22.89375)"/><use xlink:href="#r" transform="matrix(1,0,0,1,1748.937465320847,1485) translate(54.591666666666676 54.09375)"/><path d="M1282 1486a6 6 0 0 1 6-6h188a6 6 0 0 1 6 6v64.57a6 6 0 0 1-6 6h-188a6 6 0 0 1-6-6z" stroke="#3a414a" stroke-width="3" fill="#fc9432"/><use xlink:href="#n" transform="matrix(1,0,0,1,1286.9967804378794,1485) translate(17.180555555555557 22.89375)"/><use xlink:href="#s" transform="matrix(1,0,0,1,1286.9967804378794,1485) translate(95.03611111111111 22.89375)"/><use xlink:href="#j" transform="matrix(1,0,0,1,1286.9967804378794,1485) translate(56.03611111111111 54.09375)"/><path d="M1843.68 1412.6l.2 54.8" stroke="#3a414a" stroke-width="3" stroke-linejoin="round" fill="none"/><path d="M1843.65 1404.45l7.68 12.88-15.27.06zM1843.93 1475.55l-7.7-12.88 15.28-.06z" stroke="#3a414a" stroke-width="3" fill="#3a414a"/><path d="M1620.07 1412.6l-.18 54.8" stroke="#3a414a" stroke-width="3" stroke-linejoin="round" fill="none"/><path d="M1620.1 1404.45l7.6 12.93-15.28-.05zM1619.87 1475.55l-7.6-12.93 15.27.05z" stroke="#3a414a" stroke-width="3" fill="#3a414a"/><path d="M1382.7 1412.6l-.58 54.8" stroke="#3a414a" stroke-width="3" stroke-linejoin="round" fill="none"/><path d="M1382.8 1404.45l7.5 13-15.27-.17zM1382.03 1475.55l-7.5-13 15.27.18z" stroke="#3a414a" stroke-width="3" fill="#3a414a"/><path d="M1013.37 790.6V948a24 24 0 0 0 24 24h401.37" stroke="#3a414a" stroke-width="3" fill="none"/><path d="M1014.84 790.64h-2.95v-1.54h2.94z" stroke="#3a414a" stroke-width=".05" fill="#3a414a"/><path d="M1446.9 972l-12.9 7.64v-15.28z" stroke="#3a414a" stroke-width="3" fill="#3a414a"/><path d="M1518 230.04l6.98 669.35" stroke="#3a414a" stroke-width="3" fill="none"/><path d="M1519.48 230.06l-2.95.03v-.72l2.92-1.7z" stroke="#3a414a" stroke-width=".05" fill="#3a414a"/><path d="M1525.06 907.55l-7.77-12.83 15.26-.16z" stroke="#3a414a" stroke-width="3" fill="#3a414a"/><path d="M1968.02 1486a6 6 0 0 1 6-6h188a6 6 0 0 1 6 6v64.57a6 6 0 0 1-6 6h-188a6 6 0 0 1-6-6z" stroke="#3a414a" stroke-width="3" fill="#fc9432"/><use xlink:href="#t" transform="matrix(1,0,0,1,1973.0194006497386,1485) translate(53.21944444444445 39.64375)"/><path d="M2067.3 1412.6l.6 54.8" stroke="#3a414a" stroke-width="3" stroke-linejoin="round" fill="none"/><path d="M2067.2 1404.45l7.78 12.82-15.27.17zM2068 1475.55l-7.8-12.82 15.28-.17z" stroke="#3a414a" stroke-width="3" fill="#3a414a"/><path d="M1320 1309.43a6 6 0 0 1 6-6h184.15a6 6 0 0 1 6 6V1374a6 6 0 0 1-6 6H1326a6 6 0 0 1-6-6z" stroke="#3a414a" stroke-width="3" fill="#ffe342"/><g><use xlink:href="#u" transform="matrix(1,0,0,1,1332,1315.4352941176471) translate(4.2388888888889085 30.7375)"/></g><path d="M1523.7 1309.43a6 6 0 0 1 6-6h184.16a6 6 0 0 1 6 6V1374a6 6 0 0 1-6 6H1529.7a6 6 0 0 1-6-6z" stroke="#3a414a" stroke-width="3" fill="#ffe342"/><g><use xlink:href="#v" transform="matrix(1,0,0,1,1535.7035311835662,1315.4352941176473) translate(11.533333333333346 30.7375)"/></g><path d="M1733.82 1309.43a6 6 0 0 1 6-6h184.15a6 6 0 0 1 6 6V1374a6 6 0 0 1-6 6h-184.15a6 6 0 0 1-6-6z" stroke="#3a414a" stroke-width="3" fill="#ffe342"/><g><use xlink:href="#w" transform="matrix(1,0,0,1,1745.8204982522066,1315.4352941176473) translate(48.980555555555554 20.8)"/><use xlink:href="#x" transform="matrix(1,0,0,1,1745.8204982522066,1315.4352941176473) translate(10.73888888888888 52)"/></g><path d="M1943.94 1309.43a6 6 0 0 1 6-6h184.15a6 6 0 0 1 6 6V1374a6 6 0 0 1-6 6h-184.16a6 6 0 0 1-6-6z" stroke="#3a414a" stroke-width="3" fill="#ffe342"/><g><use xlink:href="#p" transform="matrix(1,0,0,1,1955.937465320847,1315.4352941176473) translate(56.99722222222223 30.7375)"/></g><defs><path d="M195 0l-88-114-31 24V0H24v-248h52v113l112-113h60L142-143 257 0h-62" id="y"/><path d="M25-224v-37h50v37H25zM25 0v-190h50V0H25" id="z"/><path d="M135-150c-39-12-60 13-60 57V0H25l-1-190h47c2 13-1 29 3 40 6-28 27-53 61-41v41" id="A"/><path d="M135-194c87-1 58 113 63 194h-50c-7-57 23-157-34-157-59 0-34 97-39 157H25l-1-190h47c2 12-1 28 3 38 12-26 28-41 61-42" id="B"/><g id="a"><use transform="matrix(0.07222222222222222,0,0,0.07222222222222222,0,0)" xlink:href="#y"/><use transform="matrix(0.07222222222222222,0,0,0.07222222222222222,18.705555555555552,0)" xlink:href="#z"/><use transform="matrix(0.07222222222222222,0,0,0.07222222222222222,25.927777777777774,0)" xlink:href="#A"/><use transform="matrix(0.07222222222222222,0,0,0.07222222222222222,36.038888888888884,0)" xlink:href="#z"/><use transform="matrix(0.07222222222222222,0,0,0.07222222222222222,43.261111111111106,0)" xlink:href="#B"/></g><path d="M199 0l-22-63H83L61 0H9l90-248h61L250 0h-51zm-33-102l-36-108c-10 38-24 72-36 108h72" id="C"/><path d="M24-248c93 1 206-16 204 79-1 75-69 88-152 82V0H24v-248zm52 121c47 0 100 7 100-41 0-47-54-39-100-39v80" id="D"/><path d="M24 0v-248h52V0H24" id="E"/><g id="b"><use transform="matrix(0.07222222222222222,0,0,0.07222222222222222,0,0)" xlink:href="#C"/><use transform="matrix(0.07222222222222222,0,0,0.07222222222222222,18.705555555555552,0)" xlink:href="#D"/><use transform="matrix(0.07222222222222222,0,0,0.07222222222222222,36.038888888888884,0)" xlink:href="#E"/></g><path d="M137 0h-34L2-248h35l83 218 83-218h36" id="F"/><path d="M100-194c63 0 86 42 84 106H49c0 40 14 67 53 68 26 1 43-12 49-29l28 8c-11 28-37 45-77 45C44 4 14-33 15-96c1-61 26-98 85-98zm52 81c6-60-76-77-97-28-3 7-6 17-6 28h103" id="G"/><path d="M96-169c-40 0-48 33-48 73s9 75 48 75c24 0 41-14 43-38l32 2c-6 37-31 61-74 61-59 0-76-41-82-99-10-93 101-131 147-64 4 7 5 14 7 22l-32 3c-4-21-16-35-41-35" id="H"/><path d="M59-47c-2 24 18 29 38 22v24C64 9 27 4 27-40v-127H5v-23h24l9-43h21v43h35v23H59v120" id="I"/><path d="M114-163C36-179 61-72 57 0H25l-1-190h30c1 12-1 29 2 39 6-27 23-49 58-41v29" id="J"/><path d="M87 75C49 33 22-17 22-94c0-76 28-126 65-167h31c-38 41-64 92-64 168S80 34 118 75H87" id="K"/><path d="M30-248c118-7 216 8 213 122C240-48 200 0 122 0H30v-248zM63-27c89 8 146-16 146-99s-60-101-146-95v194" id="L"/><path d="M160-131c35 5 61 23 61 61C221 17 115-2 30 0v-248c76 3 177-17 177 60 0 33-19 50-47 57zm-97-11c50-1 110 9 110-42 0-47-63-36-110-37v79zm0 115c55-2 124 14 124-45 0-56-70-42-124-44v89" id="M"/><path d="M33-261c38 41 65 92 65 168S71 34 33 75H2C39 34 66-17 66-93S39-220 2-261h31" id="N"/><g id="c"><use transform="matrix(0.07222222222222222,0,0,0.07222222222222222,0,0)" xlink:href="#F"/><use transform="matrix(0.07222222222222222,0,0,0.07222222222222222,15.888888888888888,0)" xlink:href="#G"/><use transform="matrix(0.07222222222222222,0,0,0.07222222222222222,30.333333333333332,0)" xlink:href="#H"/><use transform="matrix(0.07222222222222222,0,0,0.07222222222222222,43.33333333333333,0)" xlink:href="#I"/><use transform="matrix(0.07222222222222222,0,0,0.07222222222222222,50.55555555555555,0)" xlink:href="#G"/><use transform="matrix(0.07222222222222222,0,0,0.07222222222222222,65,0)" xlink:href="#J"/><use transform="matrix(0.07222222222222222,0,0,0.07222222222222222,73.59444444444445,0)" xlink:href="#K"/><use transform="matrix(0.07222222222222222,0,0,0.07222222222222222,82.1888888888889,0)" xlink:href="#L"/><use transform="matrix(0.07222222222222222,0,0,0.07222222222222222,100.89444444444445,0)" xlink:href="#M"/><use transform="matrix(0.07222222222222222,0,0,0.07222222222222222,118.22777777777776,0)" xlink:href="#N"/></g><g id="d"><use transform="matrix(0.07222222222222222,0,0,0.07222222222222222,0,0)" xlink:href="#L"/><use transform="matrix(0.07222222222222222,0,0,0.07222222222222222,18.705555555555552,0)" xlink:href="#M"/></g><path d="M67-125c0 53 21 87 73 88 37 1 54-22 65-47l45 17C233-25 199 4 140 4 58 4 20-42 15-125 8-235 124-281 211-232c18 10 29 29 36 50l-46 12c-8-25-30-41-62-41-52 0-71 34-72 86" id="O"/><path d="M110-194c64 0 96 36 96 99 0 64-35 99-97 99-61 0-95-36-95-99 0-62 34-99 96-99zm-1 164c35 0 45-28 45-65 0-40-10-65-43-65-34 0-45 26-45 65 0 36 10 65 43 65" id="P"/><path d="M115-3C79 11 28 4 28-45v-112H4v-33h27l15-45h31v45h36v33H77v99c-1 23 16 31 38 25v30" id="Q"/><path d="M133-34C117-15 103 5 69 4 32 3 11-16 11-54c-1-60 55-63 116-61 1-26-3-47-28-47-18 1-26 9-28 27l-52-2c7-38 36-58 82-57s74 22 75 68l1 82c-1 14 12 18 25 15v27c-30 8-71 5-69-32zm-48 3c29 0 43-24 42-57-32 0-66-3-65 30 0 17 8 27 23 27" id="R"/><path d="M185-48c-13 30-37 53-82 52C43 2 14-33 14-96s30-98 90-98c62 0 83 45 84 108H66c0 31 8 55 39 56 18 0 30-7 34-22zm-45-69c5-46-57-63-70-21-2 6-4 13-4 21h74" id="S"/><g id="e"><use transform="matrix(0.07222222222222222,0,0,0.07222222222222222,0,0)" xlink:href="#O"/><use transform="matrix(0.07222222222222222,0,0,0.07222222222222222,18.705555555555552,0)" xlink:href="#P"/><use transform="matrix(0.07222222222222222,0,0,0.07222222222222222,34.52222222222222,0)" xlink:href="#B"/><use transform="matrix(0.07222222222222222,0,0,0.07222222222222222,50.33888888888888,0)" xlink:href="#Q"/><use transform="matrix(0.07222222222222222,0,0,0.07222222222222222,58.93333333333332,0)" xlink:href="#R"/><use transform="matrix(0.07222222222222222,0,0,0.07222222222222222,73.37777777777777,0)" xlink:href="#z"/><use transform="matrix(0.07222222222222222,0,0,0.07222222222222222,80.6,0)" xlink:href="#B"/><use transform="matrix(0.07222222222222222,0,0,0.07222222222222222,96.41666666666666,0)" xlink:href="#S"/><use transform="matrix(0.07222222222222222,0,0,0.07222222222222222,110.8611111111111,0)" xlink:href="#A"/></g><path d="M24 0v-248h195v40H76v63h132v40H76v65h150V0H24" id="T"/><path d="M128 0H69L1-190h53L99-40l48-150h52" id="U"/><path d="M220-157c-53 9-28 100-34 157h-49v-107c1-27-5-49-29-50C55-147 81-57 75 0H25l-1-190h47c2 12-1 28 3 38 10-53 101-56 108 0 13-22 24-43 59-42 82 1 51 116 57 194h-49v-107c-1-25-5-48-29-50" id="V"/><g id="f"><use transform="matrix(0.07222222222222222,0,0,0.07222222222222222,0,0)" xlink:href="#T"/><use transform="matrix(0.07222222222222222,0,0,0.07222222222222222,17.333333333333332,0)" xlink:href="#B"/><use transform="matrix(0.07222222222222222,0,0,0.07222222222222222,33.15,0)" xlink:href="#U"/><use transform="matrix(0.07222222222222222,0,0,0.07222222222222222,47.59444444444444,0)" xlink:href="#z"/><use transform="matrix(0.07222222222222222,0,0,0.07222222222222222,54.81666666666666,0)" xlink:href="#A"/><use transform="matrix(0.07222222222222222,0,0,0.07222222222222222,64.92777777777778,0)" xlink:href="#P"/><use transform="matrix(0.07222222222222222,0,0,0.07222222222222222,80.74444444444444,0)" xlink:href="#B"/><use transform="matrix(0.07222222222222222,0,0,0.07222222222222222,96.5611111111111,0)" xlink:href="#V"/><use transform="matrix(0.07222222222222222,0,0,0.07222222222222222,119.67222222222222,0)" xlink:href="#S"/><use transform="matrix(0.07222222222222222,0,0,0.07222222222222222,134.11666666666667,0)" xlink:href="#B"/><use transform="matrix(0.07222222222222222,0,0,0.07222222222222222,149.93333333333337,0)" xlink:href="#Q"/></g><g id="g"><use transform="matrix(0.07222222222222222,0,0,0.07222222222222222,0,0)" xlink:href="#L"/><use transform="matrix(0.07222222222222222,0,0,0.07222222222222222,18.705555555555552,0)" xlink:href="#M"/></g><path d="M24-231v-30h32v30H24zM24 0v-190h32V0H24" id="W"/><path d="M108 0H70L1-190h34L89-25l56-165h34" id="X"/><g id="h"><use transform="matrix(0.07222222222222222,0,0,0.07222222222222222,0,0)" xlink:href="#L"/><use transform="matrix(0.07222222222222222,0,0,0.07222222222222222,18.705555555555552,0)" xlink:href="#J"/><use transform="matrix(0.07222222222222222,0,0,0.07222222222222222,27.299999999999997,0)" xlink:href="#W"/><use transform="matrix(0.07222222222222222,0,0,0.07222222222222222,33.00555555555555,0)" xlink:href="#X"/><use transform="matrix(0.07222222222222222,0,0,0.07222222222222222,46.00555555555555,0)" xlink:href="#G"/><use transform="matrix(0.07222222222222222,0,0,0.07222222222222222,60.449999999999996,0)" xlink:href="#J"/></g><path d="M63-220v92h138v28H63V0H30v-248h175v28H63" id="Y"/><path d="M117-194c89-4 53 116 60 194h-32v-121c0-31-8-49-39-48C34-167 62-67 57 0H25l-1-190h30c1 10-1 24 2 32 11-22 29-35 61-36" id="Z"/><path d="M16-82v-28h88v28H16" id="aa"/><path d="M84 4C-5 8 30-112 23-190h32v120c0 31 7 50 39 49 72-2 45-101 50-169h31l1 190h-30c-1-10 1-25-2-33-11 22-28 36-60 37" id="ab"/><g id="i"><use transform="matrix(0.07222222222222222,0,0,0.07222222222222222,0,0)" xlink:href="#Y"/><use transform="matrix(0.07222222222222222,0,0,0.07222222222222222,15.816666666666665,0)" xlink:href="#W"/><use transform="matrix(0.07222222222222222,0,0,0.07222222222222222,21.52222222222222,0)" xlink:href="#Z"/><use transform="matrix(0.07222222222222222,0,0,0.07222222222222222,35.96666666666666,0)" xlink:href="#G"/><use transform="matrix(0.07222222222222222,0,0,0.07222222222222222,50.411111111111104,0)" xlink:href="#aa"/><use transform="matrix(0.07222222222222222,0,0,0.07222222222222222,59.00555555555554,0)" xlink:href="#I"/><use transform="matrix(0.07222222222222222,0,0,0.07222222222222222,66.22777777777776,0)" xlink:href="#ab"/><use transform="matrix(0.07222222222222222,0,0,0.07222222222222222,80.6722222222222,0)" xlink:href="#Z"/><use transform="matrix(0.07222222222222222,0,0,0.07222222222222222,95.11666666666665,0)" xlink:href="#G"/></g><path d="M177-190C167-65 218 103 67 71c-23-6-38-20-44-43l32-5c15 47 100 32 89-28v-30C133-14 115 1 83 1 29 1 15-40 15-95c0-56 16-97 71-98 29-1 48 16 59 35 1-10 0-23 2-32h30zM94-22c36 0 50-32 50-73 0-42-14-75-50-75-39 0-46 34-46 75s6 73 46 73" id="ac"/><g id="j"><use transform="matrix(0.07222222222222222,0,0,0.07222222222222222,0,0)" xlink:href="#G"/><use transform="matrix(0.07222222222222222,0,0,0.07222222222222222,14.444444444444443,0)" xlink:href="#Z"/><use transform="matrix(0.07222222222222222,0,0,0.07222222222222222,28.888888888888886,0)" xlink:href="#ac"/><use transform="matrix(0.07222222222222222,0,0,0.07222222222222222,43.33333333333333,0)" xlink:href="#W"/><use transform="matrix(0.07222222222222222,0,0,0.07222222222222222,49.038888888888884,0)" xlink:href="#Z"/><use transform="matrix(0.07222222222222222,0,0,0.07222222222222222,63.48333333333333,0)" xlink:href="#G"/></g><path d="M212-179c-10-28-35-45-73-45-59 0-87 40-87 99 0 60 29 101 89 101 43 0 62-24 78-52l27 14C228-24 195 4 139 4 59 4 22-46 18-125c-6-104 99-153 187-111 19 9 31 26 39 46" id="ad"/><path d="M106-169C34-169 62-67 57 0H25v-261h32l-1 103c12-21 28-36 61-36 89 0 53 116 60 194h-32v-121c2-32-8-49-39-48" id="ae"/><path d="M141-36C126-15 110 5 73 4 37 3 15-17 15-53c-1-64 63-63 125-63 3-35-9-54-41-54-24 1-41 7-42 31l-33-3c5-37 33-52 76-52 45 0 72 20 72 64v82c-1 20 7 32 28 27v20c-31 9-61-2-59-35zM48-53c0 20 12 33 32 33 41-3 63-29 60-74-43 2-92-5-92 41" id="af"/><g id="k"><use transform="matrix(0.07222222222222222,0,0,0.07222222222222222,0,0)" xlink:href="#ad"/><use transform="matrix(0.07222222222222222,0,0,0.07222222222222222,18.705555555555552,0)" xlink:href="#ae"/><use transform="matrix(0.07222222222222222,0,0,0.07222222222222222,33.14999999999999,0)" xlink:href="#af"/><use transform="matrix(0.07222222222222222,0,0,0.07222222222222222,47.594444444444434,0)" xlink:href="#I"/></g><path d="M127-220V0H93v-220H8v-28h204v28h-85" id="ag"/><g id="l"><use transform="matrix(0.07222222222222222,0,0,0.07222222222222222,0,0)" xlink:href="#ag"/><use transform="matrix(0.07222222222222222,0,0,0.07222222222222222,14.877777777777776,0)" xlink:href="#J"/><use transform="matrix(0.07222222222222222,0,0,0.07222222222222222,23.47222222222222,0)" xlink:href="#af"/><use transform="matrix(0.07222222222222222,0,0,0.07222222222222222,37.916666666666664,0)" xlink:href="#W"/><use transform="matrix(0.07222222222222222,0,0,0.07222222222222222,43.62222222222222,0)" xlink:href="#Z"/><use transform="matrix(0.07222222222222222,0,0,0.07222222222222222,58.06666666666666,0)" xlink:href="#W"/><use transform="matrix(0.07222222222222222,0,0,0.07222222222222222,63.77222222222222,0)" xlink:href="#Z"/><use transform="matrix(0.07222222222222222,0,0,0.07222222222222222,78.21666666666668,0)" xlink:href="#ac"/></g><path d="M100-194c62-1 85 37 85 99 1 63-27 99-86 99S16-35 15-95c0-66 28-99 85-99zM99-20c44 1 53-31 53-75 0-43-8-75-51-75s-53 32-53 75 10 74 51 75" id="ah"/><path d="M179-190L93 31C79 59 56 82 12 73V49c39 6 53-20 64-50L1-190h34L92-34l54-156h33" id="ai"/><g id="m"><use transform="matrix(0.07222222222222222,0,0,0.07222222222222222,0,0)" xlink:href="#Y"/><use transform="matrix(0.07222222222222222,0,0,0.07222222222222222,15.816666666666665,0)" xlink:href="#af"/><use transform="matrix(0.07222222222222222,0,0,0.07222222222222222,30.261111111111106,0)" xlink:href="#H"/><use transform="matrix(0.07222222222222222,0,0,0.07222222222222222,43.261111111111106,0)" xlink:href="#I"/><use transform="matrix(0.07222222222222222,0,0,0.07222222222222222,50.48333333333333,0)" xlink:href="#ah"/><use transform="matrix(0.07222222222222222,0,0,0.07222222222222222,64.92777777777778,0)" xlink:href="#J"/><use transform="matrix(0.07222222222222222,0,0,0.07222222222222222,73.52222222222223,0)" xlink:href="#ai"/></g><path d="M240 0l2-218c-23 76-54 145-80 218h-23L58-218 59 0H30v-248h44l77 211c21-75 51-140 76-211h43V0h-30" id="aj"/><path d="M85-194c31 0 48 13 60 33l-1-100h32l1 261h-30c-2-10 0-23-3-31C134-8 116 4 85 4 32 4 16-35 15-94c0-66 23-100 70-100zm9 24c-40 0-46 34-46 75 0 40 6 74 45 74 42 0 51-32 51-76 0-42-9-74-50-73" id="ak"/><path d="M24 0v-261h32V0H24" id="al"/><g id="n"><use transform="matrix(0.07222222222222222,0,0,0.07222222222222222,0,0)" xlink:href="#aj"/><use transform="matrix(0.07222222222222222,0,0,0.07222222222222222,21.59444444444444,0)" xlink:href="#ah"/><use transform="matrix(0.07222222222222222,0,0,0.07222222222222222,36.038888888888884,0)" xlink:href="#ak"/><use transform="matrix(0.07222222222222222,0,0,0.07222222222222222,50.48333333333333,0)" xlink:href="#G"/><use transform="matrix(0.07222222222222222,0,0,0.07222222222222222,64.92777777777778,0)" xlink:href="#al"/></g><path d="M197 0v-115H63V0H30v-248h33v105h134v-105h34V0h-34" id="am"/><g id="o"><use transform="matrix(0.07222222222222222,0,0,0.07222222222222222,0,0)" xlink:href="#am"/><use transform="matrix(0.07222222222222222,0,0,0.07222222222222222,18.705555555555552,0)" xlink:href="#G"/><use transform="matrix(0.07222222222222222,0,0,0.07222222222222222,33.14999999999999,0)" xlink:href="#J"/><use transform="matrix(0.07222222222222222,0,0,0.07222222222222222,41.74444444444443,0)" xlink:href="#ah"/></g><path d="M233-177c-1 41-23 64-60 70L243 0h-38l-65-103H63V0H30v-248c88 3 205-21 203 71zM63-129c60-2 137 13 137-47 0-61-80-42-137-45v92" id="an"/><g id="p"><use transform="matrix(0.07222222222222222,0,0,0.07222222222222222,0,0)" xlink:href="#ad"/><use transform="matrix(0.07222222222222222,0,0,0.07222222222222222,18.705555555555552,0)" xlink:href="#an"/><use transform="matrix(0.07222222222222222,0,0,0.07222222222222222,37.411111111111104,0)" xlink:href="#aj"/></g><path d="M33 0v-248h34V0H33" id="ao"/><path d="M101-234c-31-9-42 10-38 44h38v23H63V0H32v-167H5v-23h27c-7-52 17-82 69-68v24" id="ap"/><g id="q"><use transform="matrix(0.07222222222222222,0,0,0.07222222222222222,0,0)" xlink:href="#ao"/><use transform="matrix(0.07222222222222222,0,0,0.07222222222222222,7.222222222222221,0)" xlink:href="#Z"/><use transform="matrix(0.07222222222222222,0,0,0.07222222222222222,21.666666666666664,0)" xlink:href="#ap"/><use transform="matrix(0.07222222222222222,0,0,0.07222222222222222,28.888888888888886,0)" xlink:href="#G"/><use transform="matrix(0.07222222222222222,0,0,0.07222222222222222,43.33333333333333,0)" xlink:href="#J"/><use transform="matrix(0.07222222222222222,0,0,0.07222222222222222,51.92777777777777,0)" xlink:href="#G"/><use transform="matrix(0.07222222222222222,0,0,0.07222222222222222,66.3722222222222,0)" xlink:href="#Z"/><use transform="matrix(0.07222222222222222,0,0,0.07222222222222222,80.81666666666665,0)" xlink:href="#H"/><use transform="matrix(0.07222222222222222,0,0,0.07222222222222222,93.81666666666663,0)" xlink:href="#G"/></g><path d="M30 0v-248h187v28H63v79h144v27H63v87h162V0H30" id="aq"/><g id="r"><use transform="matrix(0.07222222222222222,0,0,0.07222222222222222,0,0)" xlink:href="#aq"/><use transform="matrix(0.07222222222222222,0,0,0.07222222222222222,17.333333333333332,0)" xlink:href="#Z"/><use transform="matrix(0.07222222222222222,0,0,0.07222222222222222,31.777777777777775,0)" xlink:href="#ac"/><use transform="matrix(0.07222222222222222,0,0,0.07222222222222222,46.222222222222214,0)" xlink:href="#W"/><use transform="matrix(0.07222222222222222,0,0,0.07222222222222222,51.92777777777777,0)" xlink:href="#Z"/><use transform="matrix(0.07222222222222222,0,0,0.07222222222222222,66.3722222222222,0)" xlink:href="#G"/></g><path d="M115-194c53 0 69 39 70 98 0 66-23 100-70 100C84 3 66-7 56-30L54 0H23l1-261h32v101c10-23 28-34 59-34zm-8 174c40 0 45-34 45-75 0-40-5-75-45-74-42 0-51 32-51 76 0 43 10 73 51 73" id="ar"/><g id="s"><use transform="matrix(0.07222222222222222,0,0,0.07222222222222222,0,0)" xlink:href="#ar"/><use transform="matrix(0.07222222222222222,0,0,0.07222222222222222,14.444444444444443,0)" xlink:href="#ab"/><use transform="matrix(0.07222222222222222,0,0,0.07222222222222222,28.888888888888886,0)" xlink:href="#W"/><use transform="matrix(0.07222222222222222,0,0,0.07222222222222222,34.59444444444444,0)" xlink:href="#al"/><use transform="matrix(0.07222222222222222,0,0,0.07222222222222222,40.3,0)" xlink:href="#ak"/><use transform="matrix(0.07222222222222222,0,0,0.07222222222222222,54.74444444444444,0)" xlink:href="#G"/><use transform="matrix(0.07222222222222222,0,0,0.07222222222222222,69.18888888888888,0)" xlink:href="#J"/></g><path d="M135-143c-3-34-86-38-87 0 15 53 115 12 119 90S17 21 10-45l28-5c4 36 97 45 98 0-10-56-113-15-118-90-4-57 82-63 122-42 12 7 21 19 24 35" id="as"/><g id="t"><use transform="matrix(0.07222222222222222,0,0,0.07222222222222222,0,0)" xlink:href="#aj"/><use transform="matrix(0.07222222222222222,0,0,0.07222222222222222,21.59444444444444,0)" xlink:href="#G"/><use transform="matrix(0.07222222222222222,0,0,0.07222222222222222,36.038888888888884,0)" xlink:href="#I"/><use transform="matrix(0.07222222222222222,0,0,0.07222222222222222,43.261111111111106,0)" xlink:href="#J"/><use transform="matrix(0.07222222222222222,0,0,0.07222222222222222,51.85555555555555,0)" xlink:href="#W"/><use transform="matrix(0.07222222222222222,0,0,0.07222222222222222,57.5611111111111,0)" xlink:href="#H"/><use transform="matrix(0.07222222222222222,0,0,0.07222222222222222,70.5611111111111,0)" xlink:href="#as"/></g><path d="M205 0l-28-72H64L36 0H1l101-248h38L239 0h-34zm-38-99l-47-123c-12 45-31 82-46 123h93" id="at"/><g id="u"><use transform="matrix(0.07222222222222222,0,0,0.07222222222222222,0,0)" xlink:href="#at"/><use transform="matrix(0.07222222222222222,0,0,0.07222222222222222,17.333333333333332,0)" xlink:href="#ab"/><use transform="matrix(0.07222222222222222,0,0,0.07222222222222222,31.777777777777775,0)" xlink:href="#I"/><use transform="matrix(0.07222222222222222,0,0,0.07222222222222222,38.99999999999999,0)" xlink:href="#ae"/><use transform="matrix(0.07222222222222222,0,0,0.07222222222222222,53.44444444444444,0)" xlink:href="#G"/><use transform="matrix(0.07222222222222222,0,0,0.07222222222222222,67.88888888888889,0)" xlink:href="#Z"/><use transform="matrix(0.07222222222222222,0,0,0.07222222222222222,82.33333333333333,0)" xlink:href="#I"/><use transform="matrix(0.07222222222222222,0,0,0.07222222222222222,89.55555555555554,0)" xlink:href="#W"/><use transform="matrix(0.07222222222222222,0,0,0.07222222222222222,95.26111111111109,0)" xlink:href="#H"/><use transform="matrix(0.07222222222222222,0,0,0.07222222222222222,108.26111111111109,0)" xlink:href="#af"/><use transform="matrix(0.07222222222222222,0,0,0.07222222222222222,122.70555555555553,0)" xlink:href="#I"/><use transform="matrix(0.07222222222222222,0,0,0.07222222222222222,129.92777777777775,0)" xlink:href="#W"/><use transform="matrix(0.07222222222222222,0,0,0.07222222222222222,135.6333333333333,0)" xlink:href="#ah"/><use transform="matrix(0.07222222222222222,0,0,0.07222222222222222,150.07777777777773,0)" xlink:href="#Z"/></g><path d="M140-251c81 0 123 46 123 126C263-46 219 4 140 4 59 4 17-45 17-125s42-126 123-126zm0 227c63 0 89-41 89-101s-29-99-89-99c-61 0-89 39-89 99S79-25 140-24" id="au"/><g id="v"><use transform="matrix(0.07222222222222222,0,0,0.07222222222222222,0,0)" xlink:href="#au"/><use transform="matrix(0.07222222222222222,0,0,0.07222222222222222,20.22222222222222,0)" xlink:href="#ar"/><use transform="matrix(0.07222222222222222,0,0,0.07222222222222222,34.666666666666664,0)" xlink:href="#as"/><use transform="matrix(0.07222222222222222,0,0,0.07222222222222222,47.666666666666664,0)" xlink:href="#G"/><use transform="matrix(0.07222222222222222,0,0,0.07222222222222222,62.11111111111111,0)" xlink:href="#J"/><use transform="matrix(0.07222222222222222,0,0,0.07222222222222222,70.70555555555555,0)" xlink:href="#X"/><use transform="matrix(0.07222222222222222,0,0,0.07222222222222222,83.70555555555555,0)" xlink:href="#af"/><use transform="matrix(0.07222222222222222,0,0,0.07222222222222222,98.14999999999999,0)" xlink:href="#ar"/><use transform="matrix(0.07222222222222222,0,0,0.07222222222222222,112.59444444444443,0)" xlink:href="#W"/><use transform="matrix(0.07222222222222222,0,0,0.07222222222222222,118.29999999999998,0)" xlink:href="#al"/><use transform="matrix(0.07222222222222222,0,0,0.07222222222222222,124.00555555555553,0)" xlink:href="#W"/><use transform="matrix(0.07222222222222222,0,0,0.07222222222222222,129.71111111111108,0)" xlink:href="#I"/><use transform="matrix(0.07222222222222222,0,0,0.07222222222222222,136.9333333333333,0)" xlink:href="#ai"/></g><path d="M185-189c-5-48-123-54-124 2 14 75 158 14 163 119 3 78-121 87-175 55-17-10-28-26-33-46l33-7c5 56 141 63 141-1 0-78-155-14-162-118-5-82 145-84 179-34 5 7 8 16 11 25" id="av"/><g id="w"><use transform="matrix(0.07222222222222222,0,0,0.07222222222222222,0,0)" xlink:href="#av"/><use transform="matrix(0.07222222222222222,0,0,0.07222222222222222,17.333333333333332,0)" xlink:href="#G"/><use transform="matrix(0.07222222222222222,0,0,0.07222222222222222,31.777777777777775,0)" xlink:href="#H"/><use transform="matrix(0.07222222222222222,0,0,0.07222222222222222,44.77777777777777,0)" xlink:href="#J"/><use transform="matrix(0.07222222222222222,0,0,0.07222222222222222,53.372222222222206,0)" xlink:href="#G"/><use transform="matrix(0.07222222222222222,0,0,0.07222222222222222,67.81666666666666,0)" xlink:href="#I"/></g><path d="M210-169c-67 3-38 105-44 169h-31v-121c0-29-5-50-35-48C34-165 62-65 56 0H25l-1-190h30c1 10-1 24 2 32 10-44 99-50 107 0 11-21 27-35 58-36 85-2 47 119 55 194h-31v-121c0-29-5-49-35-48" id="aw"/><g id="x"><use transform="matrix(0.07222222222222222,0,0,0.07222222222222222,0,0)" xlink:href="#aj"/><use transform="matrix(0.07222222222222222,0,0,0.07222222222222222,21.59444444444444,0)" xlink:href="#af"/><use transform="matrix(0.07222222222222222,0,0,0.07222222222222222,36.038888888888884,0)" xlink:href="#Z"/><use transform="matrix(0.07222222222222222,0,0,0.07222222222222222,50.48333333333333,0)" xlink:href="#af"/><use transform="matrix(0.07222222222222222,0,0,0.07222222222222222,64.92777777777778,0)" xlink:href="#ac"/><use transform="matrix(0.07222222222222222,0,0,0.07222222222222222,79.37222222222222,0)" xlink:href="#G"/><use transform="matrix(0.07222222222222222,0,0,0.07222222222222222,93.81666666666666,0)" xlink:href="#aw"/><use transform="matrix(0.07222222222222222,0,0,0.07222222222222222,115.4111111111111,0)" xlink:href="#G"/><use transform="matrix(0.07222222222222222,0,0,0.07222222222222222,129.85555555555555,0)" xlink:href="#Z"/><use transform="matrix(0.07222222222222222,0,0,0.07222222222222222,144.3,0)" xlink:href="#I"/></g></defs></g></svg>