<svg xmlns="http://www.w3.org/2000/svg" xmlns:xlink="http://www.w3.org/1999/xlink" xmlns:lucid="lucid" width="1955" height="1797"><g transform="translate(-311 179)" lucid:page-tab-id="BlRs0-3wSJWV"><path d="M-500-500h3000v2500H-500z" fill="#f2f3f5"/><path d="M1200 846a6 6 0 0 1 6-6h1028a6 6 0 0 1 6 6v748a6 6 0 0 1-6 6H1206a6 6 0 0 1-6-6z" stroke="#3a414a" stroke-width="3" fill="#b8f5ed"/><path d="M1283.7 1166a6 6 0 0 1 6-6H2154a6 6 0 0 1 6 6v228a6 6 0 0 1-6 6h-864.3a6 6 0 0 1-6-6z" stroke="#3a414a" stroke-width="3" fill="#e8e2c8"/><path d="M1282 1166a6 6 0 0 1 6-6h188a6 6 0 0 1 6 6v48a6 6 0 0 1-6 6h-188a6 6 0 0 1-6-6z" stroke="#000" stroke-opacity="0" stroke-width="3" fill="#fff" fill-opacity="0"/><use xlink:href="#a" transform="matrix(1,0,0,1,1286.9967804378794,1165) translate(40.219444444444456 30.175)"/><use xlink:href="#b" transform="matrix(1,0,0,1,1286.9967804378794,1165) translate(106.51944444444445 30.175)"/><path d="M1438 92.56a6 6 0 0 1 6-6h132a6 6 0 0 1 6 6v118.32c-24.06-20.76-39.04-20.76-48.1-20.76-14.4 0-33.56 20.76-47.96 20.76-8.93 0-24.05 0-47.95-20.76z" stroke="#3a414a" stroke-width="3" fill="#d7faf5"/><path d="M1446 103.53a6 6 0 0 1 6-6h132a6 6 0 0 1 6 6v118.32c-24.06-20.76-39.04-20.76-48.1-20.76-14.4 0-33.56 20.75-47.96 20.75-8.93 0-24.05 0-47.95-20.76z" stroke="#3a414a" stroke-width="3" fill="#d7faf5"/><path d="M1454 114.5a6 6 0 0 1 6-6h132a6 6 0 0 1 6 6v118.32c-24.06-20.76-39.04-20.76-48.1-20.76-14.4 0-33.56 20.76-47.96 20.76-8.93 0-24.05 0-47.95-20.76z" stroke="#3a414a" stroke-width="3" fill="#d7faf5"/><use xlink:href="#c" transform="matrix(1,0,0,1,1458.9887991241249,113.49767115181731) translate(24.461111111111123 20.999999999999996)"/><use xlink:href="#d" transform="matrix(1,0,0,1,1458.9887991241249,113.49767115181731) translate(22.33055555555557 52.2)"/><use xlink:href="#e" transform="matrix(1,0,0,1,1458.9887991241249,113.49767115181731) translate(20.09166666666667 83.4)"/><path d="M1598.84 1020c0 6.63-33 12-73.75 12-40.74 0-73.76-5.37-73.76-12v-96c0-6.63 33.02-12 73.75-12s73.74 5.37 73.74 12z" stroke="#3a414a" stroke-width="3" fill="#fff"/><path d="M1598.84 924c0 6.63-33 12-73.75 12-40.74 0-73.76-5.37-73.76-12" stroke="#3a414a" stroke-width="3" fill="none"/><use xlink:href="#f" transform="matrix(1,0,0,1,1456.3440072763526,941.0000186535692) translate(5.588888888888889 47.675)"/><path d="M1525.1 1044.6v142.8" stroke="#3a414a" stroke-width="3" fill="none"/><path d="M1525.1 1036.45l7.63 12.9h-15.27zM1525.1 1195.55l-7.64-12.9h15.27z" stroke="#3a414a" stroke-width="3" fill="#3a414a"/><path d="M1853.96 1028.54c0 6.66-22.76 12.07-50.84 12.07-28.1 0-50.85-5.4-50.85-12.06v-96.48c0-6.66 22.76-12.06 50.85-12.06 28.08 0 50.84 5.4 50.84 12.06z" stroke="#3a414a" stroke-width="3" fill="#fff"/><path d="M1853.96 932.06c0 6.66-22.76 12.06-50.84 12.06-28.1 0-50.85-5.4-50.85-12.06" stroke="#3a414a" stroke-width="3" fill="none"/><use xlink:href="#g" transform="matrix(1,0,0,1,1757.2686534833183,949.120901034615) translate(27.980555555555558 47.9875)"/><path d="M1803.12 1053.2v134.2" stroke="#3a414a" stroke-width="3" fill="none"/><path d="M1803.12 1045.05l7.63 12.9h-15.27zM1803.12 1195.55l-7.64-12.9h15.27z" stroke="#3a414a" stroke-width="3" fill="#3a414a"/><path d="M1157.12 846a6 6 0 0 1 6-6h388a6 6 0 0 1 6 6v60.4a6 6 0 0 1-6 6h-388a6 6 0 0 1-6-6z" stroke="#000" stroke-opacity="0" stroke-width="3" fill="#fff" fill-opacity="0"/><use xlink:href="#h" transform="matrix(1,0,0,1,1162.1166646839633,845) translate(51.638888888888914 36.55)"/><use xlink:href="#i" transform="matrix(1,0,0,1,1162.1166646839633,845) translate(179.83333333333334 36.55)"/><path d="M1601 159.66l31.43-.63 24.97-1.55 20.75-2.17 19.32-2.84 23.16-4.46 59.9-12.58 19.3-2.86 20.76-2.17 24.96-1.56 21.83-.43" stroke="#3a414a" stroke-width="3" stroke-linejoin="round" fill="none"/><path d="M1601.06 161.13l-1.57.03v-2.95l1.5-.02z" stroke="#3a414a" stroke-width=".05" fill="#3a414a"/><path d="M1875.55 128.25l-12.75 7.9-.3-15.28z" stroke="#3a414a" stroke-width="3" fill="#3a414a"/><path d="M1880 61.06a6 6 0 0 1 6-6h132a6 6 0 0 1 6 6v118.32c-24.05-20.76-39.02-20.76-48.1-20.76-14.4 0-33.55 20.76-47.95 20.76-8.93 0-24.05 0-47.95-20.76z" stroke="#3a414a" stroke-width="3" fill="#d7faf5"/><path d="M1888 72.03a6 6 0 0 1 6-6h132a6 6 0 0 1 6 6v118.32c-24.05-20.76-39.02-20.76-48.1-20.76-14.4 0-33.55 20.75-47.95 20.75-8.93 0-24.05 0-47.95-20.76z" stroke="#3a414a" stroke-width="3" fill="#d7faf5"/><path d="M1896 83a6 6 0 0 1 6-6h132a6 6 0 0 1 6 6v118.32c-24.05-20.76-39.02-20.76-48.1-20.76-14.4 0-33.55 20.76-47.95 20.76-8.93 0-24.05 0-47.95-20.76z" stroke="#3a414a" stroke-width="3" fill="#d7faf5"/><use xlink:href="#j" transform="matrix(1,0,0,1,1901,81.99764705882359) translate(31.961111111111116 53.1125)"/><path d="M1601 159.66l3.34-.07 4.65-.3 4.46-.48 4.34-.63 4.2-.82 4.12-.96 4.04-1.13 3.98-1.3 3.95-1.47 3.9-1.65 3.93-1.84 3.94-2.06 3.97-2.3 4.04-2.56 4.12-2.87 4.24-3.22 4.4-3.63 4.57-4.13 4.85-4.74 5.16-5.5 5.63-6.53 6.27-7.9 7.26-10.03 9.12-13.75 15-24.93L1764.5-7l9.13-13.76 7.26-10 6.25-7.93 5.62-6.5 5.17-5.5 4.84-4.75 4.58-4.13 4.4-3.63 4.23-3.23 4.1-2.87 4.05-2.56 3.97-2.3 3.94-2.06 3.92-1.84 3.92-1.65 3.94-1.48 4-1.3 4.03-1.12 4.1-.97 4.22-.8 4.33-.64 2.88-.3" stroke="#3a414a" stroke-width="3" stroke-linejoin="round" fill="none"/><path d="M1601.06 161.13l-1.57.03v-2.95l1.5-.02z" stroke="#3a414a" stroke-width=".05" fill="#3a414a"/><path d="M1875.56-86.72l-12.5 8.28-.78-15.26z" stroke="#3a414a" stroke-width="3" fill="#3a414a"/><path d="M1880-154a6 6 0 0 1 6-6h132a6 6 0 0 1 6 6v118.32c-24.05-20.76-39.02-20.76-48.1-20.76-14.4 0-33.55 20.76-47.95 20.76-8.93 0-24.05 0-47.95-20.76z" stroke="#3a414a" stroke-width="3" fill="#d7faf5"/><path d="M1888-143.03a6 6 0 0 1 6-6h132a6 6 0 0 1 6 6V-24.7c-24.05-20.77-39.02-20.77-48.1-20.77-14.4 0-33.55 20.76-47.95 20.76-8.93 0-24.05 0-47.95-20.77z" stroke="#3a414a" stroke-width="3" fill="#d7faf5"/><path d="M1896-132.06a6 6 0 0 1 6-6h132a6 6 0 0 1 6 6v118.32c-24.05-20.76-39.02-20.76-48.1-20.76-14.4 0-33.55 20.76-47.95 20.76-8.93 0-24.05 0-47.95-20.76z" stroke="#3a414a" stroke-width="3" fill="#d7faf5"/><use xlink:href="#k" transform="matrix(1,0,0,1,1901,-133.06117647058824) translate(31.202777777777783 53.1125)"/><path d="M717.12 266.8a6 6 0 0 1 6-6h580.5a6 6 0 0 1 6 6v514.8a6 6 0 0 1-6 6h-580.5a6 6 0 0 1-6-6z" stroke="#cfe4ff" stroke-width="3" fill="#cfe4ff"/><path d="M717.12 262.26a6 6 0 0 1 6-6h228a6 6 0 0 1 6 6v48a6 6 0 0 1-6 6h-228a6 6 0 0 1-6-6z" stroke="#000" stroke-opacity="0" stroke-width="3" fill="#c3f7c8"/><use xlink:href="#l" transform="matrix(1,0,0,1,722.1166646839633,261.25882352941176) translate(19.883333333333354 30.175)"/><path d="M877.12 326.8a6 6 0 0 1 6-6h268a6 6 0 0 1 6 6v68a6 6 0 0 1-6 6h-268a6 6 0 0 1-6-6z" stroke="#3a414a" stroke-width="3" fill="#fff"/><use xlink:href="#m" transform="matrix(1,0,0,1,882.1166646839633,325.79999999999995) translate(65.05277777777779 40.4875)"/><path d="M877.12 482.4a6 6 0 0 1 6-6h268a6 6 0 0 1 6 6v68a6 6 0 0 1-6 6h-268a6 6 0 0 1-6-6z" stroke="#3a414a" stroke-width="3" fill="#fff"/><use xlink:href="#n" transform="matrix(1,0,0,1,882.1166646839633,481.4000000000002) translate(31.144444444444446 40.4875)"/><path d="M1435 160.06H1041.1a24 24 0 0 0-24 24V308.2" stroke="#3a414a" stroke-width="3" fill="none"/><path d="M1436.5 161.54h-1.55v-2.95h1.54z" stroke="#3a414a" stroke-width=".05" fill="#3a414a"/><path d="M1017.12 316.35l-7.64-12.9h15.27z" stroke="#3a414a" stroke-width="3" fill="#3a414a"/><path d="M1014.75 402.3v61.5" stroke="#3a414a" stroke-width="3" stroke-linejoin="round" fill="none"/><path d="M1014.75 402.34v-1.54" stroke="#3a414a" stroke-width="3" fill="none"/><path d="M1014.75 471.95l-7.64-12.9h15.3z" stroke="#3a414a" stroke-width="3" fill="#3a414a"/><path d="M864.5 360.58l-16.5-.33-21.67-1.35-18.14-1.9-16.28-2.4-16.06-3.06-20.02-4.74-54.58-13.94-16.06-3.06-16.27-2.4-18.15-1.9-21.67-1.35-26.1-.52" stroke="#3a414a" stroke-width="3" stroke-linejoin="round" fill="none"/><path d="M872.67 360.74l-13.06 7.38.3-15.27z" stroke="#3a414a" stroke-width="3" fill="#3a414a"/><path d="M603.04 322.13v2.94h-1.54v-2.94z" stroke="#3a414a" stroke-width=".05" fill="#3a414a"/><path d="M320 289.6a6 6 0 0 1 6-6h268a6 6 0 0 1 6 6v68a6 6 0 0 1-6 6H326a6 6 0 0 1-6-6z" stroke="#3a414a" stroke-width="3" fill="#fff"/><use xlink:href="#o" transform="matrix(1,0,0,1,325,288.60000000000014) translate(52.81111111111113 40.4875)"/><use xlink:href="#p" transform="matrix(1,0,0,1,325,288.60000000000014) translate(114.85000000000001 40.4875)"/><path d="M864.5 516.18l-19.35-.4-23.42-1.44-19.5-2.04-17.78-2.63-19.07-3.65-72.72-16.1-17.8-2.62-19.48-2.04-23.4-1.45-28.98-.57" stroke="#3a414a" stroke-width="3" stroke-linejoin="round" fill="none"/><path d="M872.67 516.34l-13.06 7.38.3-15.27z" stroke="#3a414a" stroke-width="3" fill="#3a414a"/><path d="M603.04 481.73v2.94h-1.54v-2.94z" stroke="#3a414a" stroke-width=".05" fill="#3a414a"/><path d="M320 446a6 6 0 0 1 6-6h268a6 6 0 0 1 6 6v74.4a6 6 0 0 1-6 6H326a6 6 0 0 1-6-6z" stroke="#3a414a" stroke-width="3" fill="#fff"/><use xlink:href="#q" transform="matrix(1,0,0,1,332,452) translate(13.41944444444448 36.55)"/><use xlink:href="#r" transform="matrix(1,0,0,1,332,452) translate(145.94722222222222 36.55)"/><path d="M864.5 516.67l-8.36.52-8.55.9-7.96 1.16-7.47 1.42-7.08 1.67-6.8 1.9-6.57 2.12-6.43 2.4-6.38 2.68-6.43 3.02-6.6 3.45-6.97 4.03-7.67 4.87-9.18 6.4-14.8 11.3-32.24 25.26-9.18 6.4-7.67 4.87-6.98 4.03-6.6 3.45-6.42 3.02-6.38 2.7-6.44 2.38-6.56 2.13-6.8 1.9-7.07 1.66-7.47 1.42-7.95 1.17-8.55.9-9.3.6-8.68.17" stroke="#3a414a" stroke-width="3" stroke-linejoin="round" fill="none"/><path d="M872.67 516.47l-12.73 7.94-.36-15.25z" stroke="#3a414a" stroke-width="3" fill="#3a414a"/><path d="M603.04 628.08h-1.54v-2.96h1.54z" stroke="#3a414a" stroke-width=".05" fill="#3a414a"/><path d="M320 589.4a6 6 0 0 1 6-6h268a6 6 0 0 1 6 6v74.4a6 6 0 0 1-6 6H326a6 6 0 0 1-6-6z" stroke="#3a414a" stroke-width="3" fill="#fff"/><use xlink:href="#s" transform="matrix(1,0,0,1,332,595.4000000000001) translate(20.569444444444457 36.55)"/><use xlink:href="#r" transform="matrix(1,0,0,1,332,595.4000000000001) translate(138.79722222222222 36.55)"/><path d="M307.4 482.7l-4.45-.45-4.7-.7-4.5-.86-4.37-1.03-4.24-1.18-4.14-1.36-4.08-1.5-4.03-1.7-4.02-1.9-4-2.1-4.06-2.33-4.12-2.6-4.22-2.95-4.4-3.33-4.6-3.8-4.94-4.47-5.45-5.34-6.28-6.68-7.93-9.2-16.27-20.75-21.52-27.68-7.92-9.22-6.27-6.7-5.44-5.33-4.94-4.46-4.6-3.82-4.4-3.33-4.22-2.94-4.12-2.6-4.05-2.34-4-2.1-4.02-1.9-4.02-1.7-4.08-1.5-4.14-1.35-4.24-1.17-4.36-1.02-4.5-.85-4.7-.7-4.92-.5-5.17-.34-3.97-.07" stroke="#3a414a" stroke-width="3" stroke-linejoin="round" fill="none"/><path d="M315.55 483.07l-13.23 7.06.67-15.25z" stroke="#3a414a" stroke-width="3" fill="#3a414a"/><path d="M83.04 325.32v2.95H81.5v-2.94z" stroke="#3a414a" stroke-width=".05" fill="#3a414a"/><path d="M307.4 482.97l-5-.1-13.6-.85-11.8-1.23-10.6-1.57-9.73-1.86-9.27-2.17-9.2-2.57-9.83-3.2-12.36-4.6-44.37-17.86-9.82-3.2-9.2-2.57-9.27-2.17-9.74-1.86-10.6-1.56-11.8-1.23-13.6-.84-14.6-.3" stroke="#3a414a" stroke-width="3" stroke-linejoin="round" fill="none"/><path d="M315.55 483.14l-13.06 7.37.3-15.26z" stroke="#3a414a" stroke-width="3" fill="#3a414a"/><path d="M83.04 431.73v2.94H81.5v-2.94z" stroke="#3a414a" stroke-width=".05" fill="#3a414a"/><path d="M307.4 626.37l-1.83-.03-11.28-.7-10.05-1.06-9.1-1.34-8.4-1.6-7.9-1.85-7.6-2.14-7.5-2.44-7.7-2.86-8.33-3.5-10.3-4.88-45.14-23.03-8.34-3.5-7.7-2.87-7.5-2.44-7.6-2.13-7.9-1.84-8.4-1.6-9.1-1.34-10.03-1.05-11.27-.7-11.43-.24" stroke="#3a414a" stroke-width="3" stroke-linejoin="round" fill="none"/><path d="M315.55 626.54l-13.06 7.37.3-15.26z" stroke="#3a414a" stroke-width="3" fill="#3a414a"/><path d="M83.04 561.73v2.94H81.5v-2.94z" stroke="#3a414a" stroke-width=".05" fill="#3a414a"/><path d="M307.4 626.83l-3.17.06-12.28.76-10.8 1.13-9.75 1.43-8.97 1.7-8.47 2-8.2 2.28-8.3 2.7-8.88 3.32-10.9 4.6-46.26 21.16-8.88 3.3-8.3 2.7-8.2 2.3-8.47 2-8.97 1.7-9.74 1.43-10.8 1.14-12.3.77-12.76.27" stroke="#3a414a" stroke-width="3" stroke-linejoin="round" fill="none"/><path d="M315.55 626.66l-12.75 7.9-.3-15.27z" stroke="#3a414a" stroke-width="3" fill="#3a414a"/><path d="M83.04 685.08H81.5v-2.96h1.54z" stroke="#3a414a" stroke-width=".05" fill="#3a414a"/><path d="M307.42 322.85l-2.45-.37-3.16-.6-3.1-.72-3.04-.86-3.03-.98-3-1.12-3-1.26-3-1.42-3.05-1.58-3.06-1.77-3.12-2-3.2-2.2-3.27-2.5-3.4-2.8-3.52-3.18-3.7-3.64-3.92-4.18-4.2-4.88-4.57-5.77-5.07-7-5.8-8.75-7.02-11.6-9.65-17.65-43.76-86.1-7.03-11.6-5.8-8.77-5.08-7-4.58-5.76-4.2-4.88-3.93-4.18-3.7-3.63-3.54-3.17-3.4-2.8-3.27-2.5-3.2-2.2-3.12-2-3.06-1.77-3.03-1.58-3.03-1.42-3-1.26-3-1.12-3.03-.98-3.05-.86-3.1-.72-3.17-.6-3.23-.48-3.32-.35-3.42-.23-2.06-.04" stroke="#3a414a" stroke-width="3" stroke-linejoin="round" fill="none"/><path d="M315.56 323.4l-13.4 6.74 1.03-15.23z" stroke="#3a414a" stroke-width="3" fill="#3a414a"/><path d="M83.04 78.53v2.94H81.5v-2.94z" stroke="#3a414a" stroke-width=".05" fill="#3a414a"/><path d="M307.4 323.15l-.43-.02-5.28-.56-5.04-.74-4.8-.92-4.65-1.08-4.5-1.25-4.38-1.43-4.3-1.6-4.25-1.78-4.23-2-4.23-2.2-4.27-2.48-4.36-2.76-4.5-3.13-4.7-3.58-5-4.15-5.5-4.94-6.27-6.16-7.88-8.42-15.7-18.38-21.94-25.92-7.88-8.42-6.28-6.16-5.5-4.94-5-4.15-4.7-3.57-4.5-3.12-4.35-2.76-4.28-2.47-4.24-2.22-4.23-2-4.25-1.77-4.3-1.6-4.4-1.43-4.5-1.25-4.63-1.1-4.8-.9-5.04-.75-5.27-.56-5.58-.35-4.45-.1" stroke="#3a414a" stroke-width="3" stroke-linejoin="round" fill="none"/><path d="M315.55 323.48l-13.2 7.1.6-15.25z" stroke="#3a414a" stroke-width="3" fill="#3a414a"/><path d="M83.04 178.53v2.94H81.5v-2.94z" stroke="#3a414a" stroke-width=".05" fill="#3a414a"/><path d="M864.52 516.95l-3.04.32-4.37.65-4.24.8-4.14.98-4.07 1.13-4 1.3-3.95 1.48-3.94 1.66-3.93 1.85-3.95 2.08-3.98 2.3-4.05 2.56-4.13 2.88-4.24 3.22-4.4 3.64-4.6 4.15-4.87 4.76-5.2 5.55-5.7 6.6-6.4 8.1-7.57 10.43-9.9 14.98-52.45 85.8-7.56 10.43-6.4 8.08-5.7 6.6-5.22 5.57-4.86 4.76-4.6 4.16-4.4 3.64-4.25 3.23-4.14 2.87-4.04 2.57-3.98 2.3-3.95 2.06-3.94 1.85-3.94 1.65-3.96 1.48-4 1.3-4.06 1.14-4.14.97-4.25.82-4.36.65-4.52.47-4.7.3-3.42.07" stroke="#3a414a" stroke-width="3" stroke-linejoin="round" fill="none"/><path d="M872.67 516.55l-12.5 8.27-.78-15.26z" stroke="#3a414a" stroke-width="3" fill="#3a414a"/><path d="M603.04 752.62h-1.54v-2.95h1.54z" stroke="#3a414a" stroke-width=".05" fill="#3a414a"/><path d="M320 709.34a6 6 0 0 1 6-6h268a6 6 0 0 1 6 6v83.6a6 6 0 0 1-6 6H326a6 6 0 0 1-6-6z" stroke="#3a414a" stroke-width="3" fill="#fff"/><use xlink:href="#t" transform="matrix(1,0,0,1,332,715.3417211439463) translate(18.655555555555594 41.05)"/><use xlink:href="#u" transform="matrix(1,0,0,1,332,715.3417211439463) translate(131.17777777777778 41.05)"/><path d="M307.4 751.74l-2.02.2-4.03.6-3.9.75-3.8.88-3.72 1.04-3.66 1.18-3.6 1.35-3.58 1.5-3.58 1.68-3.58 1.87-3.6 2.1-3.68 2.32-3.74 2.6-3.86 2.93-4 3.3-4.2 3.8-4.48 4.38-4.84 5.16-5.38 6.24-6.25 7.9-7.92 10.94-14.7 22.33-25.26 39.06-7.93 10.94-6.26 7.9-5.38 6.25-4.84 5.16-4.48 4.4-4.2 3.78-4 3.3-3.86 2.94-3.74 2.6-3.67 2.33-3.6 2.1-3.6 1.86-3.56 1.7-3.57 1.5-3.6 1.34-3.66 1.18-3.7 1.04-3.8.9-3.92.74-4.03.6-4.18.43-4.36.27-3.08.07" stroke="#3a414a" stroke-width="3" stroke-linejoin="round" fill="none"/><path d="M315.55 751.3l-12.48 8.32-.82-15.25z" stroke="#3a414a" stroke-width="3" fill="#3a414a"/><path d="M83.04 940.67H81.5v-2.94h1.54z" stroke="#3a414a" stroke-width=".05" fill="#3a414a"/><path d="M307.4 751.37l-2.5.05-11.77.74-10.43 1.1-9.43 1.38-8.68 1.65-8.2 1.9-7.9 2.2-7.86 2.57-8.22 3.06-9.33 3.93-14.02 6.64-32.17 15.78-9.32 3.93-8.22 3.07-7.87 2.56-7.9 2.2-8.2 1.92-8.68 1.66-9.42 1.4-10.42 1.1-11.78.72-12.1.25" stroke="#3a414a" stroke-width="3" stroke-linejoin="round" fill="none"/><path d="M315.55 751.2l-12.75 7.9-.3-15.27z" stroke="#3a414a" stroke-width="3" fill="#3a414a"/><path d="M83.04 812.67H81.5v-2.94h1.54z" stroke="#3a414a" stroke-width=".05" fill="#3a414a"/><path d="M1320 1206a6 6 0 0 1 6-6h808.1a6 6 0 0 1 6 6v64.57a6 6 0 0 1-6 6H1326a6 6 0 0 1-6-6z" stroke="#3a414a" stroke-width="3" fill="#ffe342"/><use xlink:href="#v" transform="matrix(1,0,0,1,1332,1212) translate(342.34722222222223 30.7375)"/><use xlink:href="#w" transform="matrix(1,0,0,1,1332,1212) translate(385.60833333333335 30.7375)"/><path d="M1519.86 1486a6 6 0 0 1 6-6h188a6 6 0 0 1 6 6v64.57a6 6 0 0 1-6 6h-188a6 6 0 0 1-6-6z" stroke="#3a414a" stroke-width="3" fill="#fc9432"/><use xlink:href="#x" transform="matrix(1,0,0,1,1524.8555299919553,1485) translate(40.219444444444456 22.89375)"/><use xlink:href="#y" transform="matrix(1,0,0,1,1524.8555299919553,1485) translate(56.03611111111111 54.09375)"/><path d="M883 1280h388.1" stroke="#3a414a" stroke-width="3" stroke-linejoin="round" fill="none"/><path d="M883.04 1281.47h-1.54v-2.94h1.54z" stroke="#3a414a" stroke-width=".05" fill="#3a414a"/><path d="M1279.26 1280l-12.9 7.64v-15.28z" stroke="#3a414a" stroke-width="3" fill="#3a414a"/><path d="M721.5 1086a6 6 0 0 1 6-6H874a6 6 0 0 1 6 6v388a6 6 0 0 1-6 6H727.5a6 6 0 0 1-6-6z" stroke="#3a414a" stroke-width="3" fill="#fff"/><path d="M721.5 1086a6 6 0 0 1 6-6h148a6 6 0 0 1 6 6v88a6 6 0 0 1-6 6h-148a6 6 0 0 1-6-6z" stroke="#3a414a" stroke-width="3" fill="#54c45e"/><use xlink:href="#z" transform="matrix(1,0,0,1,733.4999500000006,1092) translate(40.59166666666667 42.175)"/><path d="M721.5 1186a6 6 0 0 1 6-6h148a6 6 0 0 1 6 6v88a6 6 0 0 1-6 6h-148a6 6 0 0 1-6-6z" stroke="#3a414a" stroke-width="3" fill="#c3f7c8"/><use xlink:href="#A" transform="matrix(1,0,0,1,733.4999500000006,1192) translate(21.669444444444444 27.925)"/><use xlink:href="#B" transform="matrix(1,0,0,1,733.4999500000006,1192) translate(24.738888888888887 59.125)"/><path d="M721.5 1286a6 6 0 0 1 6-6h148a6 6 0 0 1 6 6v88a6 6 0 0 1-6 6h-148a6 6 0 0 1-6-6z" stroke="#3a414a" stroke-width="3" fill="#c3f7c8"/><use xlink:href="#C" transform="matrix(1,0,0,1,733.4999500000006,1292) translate(0.9777777777777885 42.175)"/><use xlink:href="#D" transform="matrix(1,0,0,1,733.4999500000006,1292) translate(78.83333333333334 42.175)"/><path d="M720 1386a6 6 0 0 1 6-6h148a6 6 0 0 1 6 6v88a6 6 0 0 1-6 6H726a6 6 0 0 1-6-6z" stroke="#3a414a" stroke-width="3" fill="#54c45e"/><use xlink:href="#E" transform="matrix(1,0,0,1,732,1392) translate(38.49722222222223 42.175)"/><path d="M1743.94 1486a6 6 0 0 1 6-6h188a6 6 0 0 1 6 6v64.57a6 6 0 0 1-6 6h-188a6 6 0 0 1-6-6z" stroke="#3a414a" stroke-width="3" fill="#54c45e"/><use xlink:href="#F" transform="matrix(1,0,0,1,1748.937465320847,1485) translate(40.869444444444454 22.89375)"/><use xlink:href="#G" transform="matrix(1,0,0,1,1748.937465320847,1485) translate(54.591666666666676 54.09375)"/><path d="M1282 1486a6 6 0 0 1 6-6h188a6 6 0 0 1 6 6v64.57a6 6 0 0 1-6 6h-188a6 6 0 0 1-6-6z" stroke="#3a414a" stroke-width="3" fill="#fc9432"/><use xlink:href="#C" transform="matrix(1,0,0,1,1286.9967804378794,1485) translate(17.180555555555557 22.89375)"/><use xlink:href="#H" transform="matrix(1,0,0,1,1286.9967804378794,1485) translate(95.03611111111111 22.89375)"/><use xlink:href="#y" transform="matrix(1,0,0,1,1286.9967804378794,1485) translate(56.03611111111111 54.09375)"/><path d="M1843.68 1412.6l.2 54.8" stroke="#3a414a" stroke-width="3" stroke-linejoin="round" fill="none"/><path d="M1843.65 1404.45l7.68 12.88-15.27.06zM1843.93 1475.55l-7.7-12.88 15.28-.06z" stroke="#3a414a" stroke-width="3" fill="#3a414a"/><path d="M1620.07 1412.6l-.18 54.8" stroke="#3a414a" stroke-width="3" stroke-linejoin="round" fill="none"/><path d="M1620.1 1404.45l7.6 12.93-15.28-.05zM1619.87 1475.55l-7.6-12.93 15.27.05z" stroke="#3a414a" stroke-width="3" fill="#3a414a"/><path d="M1382.7 1412.6l-.58 54.8" stroke="#3a414a" stroke-width="3" stroke-linejoin="round" fill="none"/><path d="M1382.8 1404.45l7.5 13-15.27-.17zM1382.03 1475.55l-7.5-13 15.27.18z" stroke="#3a414a" stroke-width="3" fill="#3a414a"/><path d="M1013.37 729.8V948a24 24 0 0 0 24 24h401.37" stroke="#3a414a" stroke-width="3" fill="none"/><path d="M1014.84 729.84h-2.95v-1.54h2.94z" stroke="#3a414a" stroke-width=".05" fill="#3a414a"/><path d="M1446.9 972l-12.9 7.64v-15.28z" stroke="#3a414a" stroke-width="3" fill="#3a414a"/><path d="M1518 230.04l6.98 669.35" stroke="#3a414a" stroke-width="3" fill="none"/><path d="M1519.48 230.06l-2.95.03v-.72l2.92-1.7z" stroke="#3a414a" stroke-width=".05" fill="#3a414a"/><path d="M1525.06 907.55l-7.77-12.83 15.26-.16z" stroke="#3a414a" stroke-width="3" fill="#3a414a"/><path d="M1968.02 1486a6 6 0 0 1 6-6h188a6 6 0 0 1 6 6v64.57a6 6 0 0 1-6 6h-188a6 6 0 0 1-6-6z" stroke="#3a414a" stroke-width="3" fill="#fc9432"/><use xlink:href="#I" transform="matrix(1,0,0,1,1973.0194006497386,1485) translate(29.35000000000001 22.89375)"/><use xlink:href="#J" transform="matrix(1,0,0,1,1973.0194006497386,1485) translate(54.591666666666676 54.09375)"/><path d="M2067.3 1412.6l.6 54.8" stroke="#3a414a" stroke-width="3" stroke-linejoin="round" fill="none"/><path d="M2067.2 1404.45l7.78 12.82-15.27.17zM2068 1475.55l-7.8-12.82 15.28-.17z" stroke="#3a414a" stroke-width="3" fill="#3a414a"/><path d="M1320 1309.43a6 6 0 0 1 6-6h184.15a6 6 0 0 1 6 6V1374a6 6 0 0 1-6 6H1326a6 6 0 0 1-6-6z" stroke="#3a414a" stroke-width="3" fill="#ffe342"/><g><use xlink:href="#K" transform="matrix(1,0,0,1,1332,1315.4352941176471) translate(4.2388888888889085 30.7375)"/></g><path d="M1523.7 1309.43a6 6 0 0 1 6-6h184.16a6 6 0 0 1 6 6V1374a6 6 0 0 1-6 6H1529.7a6 6 0 0 1-6-6z" stroke="#3a414a" stroke-width="3" fill="#ffe342"/><g><use xlink:href="#L" transform="matrix(1,0,0,1,1535.7035311835662,1315.4352941176473) translate(11.533333333333346 30.7375)"/></g><path d="M1733.82 1309.43a6 6 0 0 1 6-6h184.15a6 6 0 0 1 6 6V1374a6 6 0 0 1-6 6h-184.15a6 6 0 0 1-6-6z" stroke="#3a414a" stroke-width="3" fill="#ffe342"/><g><use xlink:href="#M" transform="matrix(1,0,0,1,1745.8204982522066,1315.4352941176473) translate(48.980555555555554 20.8)"/><use xlink:href="#N" transform="matrix(1,0,0,1,1745.8204982522066,1315.4352941176473) translate(10.73888888888888 52)"/></g><path d="M1943.94 1309.43a6 6 0 0 1 6-6h184.15a6 6 0 0 1 6 6V1374a6 6 0 0 1-6 6h-184.16a6 6 0 0 1-6-6z" stroke="#3a414a" stroke-width="3" fill="#ffe342"/><g><use xlink:href="#E" transform="matrix(1,0,0,1,1955.937465320847,1315.4352941176473) translate(56.99722222222223 30.7375)"/></g><path d="M873.37 652.8a6 6 0 0 1 6-6h268a6 6 0 0 1 6 6v68a6 6 0 0 1-6 6h-268a6 6 0 0 1-6-6z" stroke="#3a414a" stroke-width="3" fill="#fff"/><g><use xlink:href="#O" transform="matrix(1,0,0,1,878.3666646839633,651.8000000000002) translate(69.35000000000001 40.4875)"/></g><path d="M1017.12 559.4v74.8" stroke="#3a414a" stroke-width="3" stroke-linejoin="round" fill="none"/><path d="M1018.6 559.44h-2.96v-1.54h2.95z" stroke="#3a414a" stroke-width=".05" fill="#3a414a"/><path d="M1017.12 642.35l-7.64-12.9h15.27z" stroke="#3a414a" stroke-width="3" fill="#3a414a"/><defs><path d="M195 0l-88-114-31 24V0H24v-248h52v113l112-113h60L142-143 257 0h-62" id="P"/><path d="M25-224v-37h50v37H25zM25 0v-190h50V0H25" id="Q"/><path d="M135-150c-39-12-60 13-60 57V0H25l-1-190h47c2 13-1 29 3 40 6-28 27-53 61-41v41" id="R"/><path d="M135-194c87-1 58 113 63 194h-50c-7-57 23-157-34-157-59 0-34 97-39 157H25l-1-190h47c2 12-1 28 3 38 12-26 28-41 61-42" id="S"/><g id="a"><use transform="matrix(0.07222222222222222,0,0,0.07222222222222222,0,0)" xlink:href="#P"/><use transform="matrix(0.07222222222222222,0,0,0.07222222222222222,18.705555555555552,0)" xlink:href="#Q"/><use transform="matrix(0.07222222222222222,0,0,0.07222222222222222,25.927777777777774,0)" xlink:href="#R"/><use transform="matrix(0.07222222222222222,0,0,0.07222222222222222,36.038888888888884,0)" xlink:href="#Q"/><use transform="matrix(0.07222222222222222,0,0,0.07222222222222222,43.261111111111106,0)" xlink:href="#S"/></g><path d="M199 0l-22-63H83L61 0H9l90-248h61L250 0h-51zm-33-102l-36-108c-10 38-24 72-36 108h72" id="T"/><path d="M24-248c93 1 206-16 204 79-1 75-69 88-152 82V0H24v-248zm52 121c47 0 100 7 100-41 0-47-54-39-100-39v80" id="U"/><path d="M24 0v-248h52V0H24" id="V"/><g id="b"><use transform="matrix(0.07222222222222222,0,0,0.07222222222222222,0,0)" xlink:href="#T"/><use transform="matrix(0.07222222222222222,0,0,0.07222222222222222,18.705555555555552,0)" xlink:href="#U"/><use transform="matrix(0.07222222222222222,0,0,0.07222222222222222,36.038888888888884,0)" xlink:href="#V"/></g><path d="M185-189c-5-48-123-54-124 2 14 75 158 14 163 119 3 78-121 87-175 55-17-10-28-26-33-46l33-7c5 56 141 63 141-1 0-78-155-14-162-118-5-82 145-84 179-34 5 7 8 16 11 25" id="W"/><path d="M115-194c55 1 70 41 70 98S169 2 115 4C84 4 66-9 55-30l1 105H24l-1-265h31l2 30c10-21 28-34 59-34zm-8 174c40 0 45-34 45-75s-6-73-45-74c-42 0-51 32-51 76 0 43 10 73 51 73" id="X"/><path d="M100-194c63 0 86 42 84 106H49c0 40 14 67 53 68 26 1 43-12 49-29l28 8c-11 28-37 45-77 45C44 4 14-33 15-96c1-61 26-98 85-98zm52 81c6-60-76-77-97-28-3 7-6 17-6 28h103" id="Y"/><path d="M96-169c-40 0-48 33-48 73s9 75 48 75c24 0 41-14 43-38l32 2c-6 37-31 61-74 61-59 0-76-41-82-99-10-93 101-131 147-64 4 7 5 14 7 22l-32 3c-4-21-16-35-41-35" id="Z"/><path d="M24-231v-30h32v30H24zM24 0v-190h32V0H24" id="aa"/><path d="M141-36C126-15 110 5 73 4 37 3 15-17 15-53c-1-64 63-63 125-63 3-35-9-54-41-54-24 1-41 7-42 31l-33-3c5-37 33-52 76-52 45 0 72 20 72 64v82c-1 20 7 32 28 27v20c-31 9-61-2-59-35zM48-53c0 20 12 33 32 33 41-3 63-29 60-74-43 2-92-5-92 41" id="ab"/><path d="M24 0v-261h32V0H24" id="ac"/><g id="c"><use transform="matrix(0.07222222222222222,0,0,0.07222222222222222,0,0)" xlink:href="#W"/><use transform="matrix(0.07222222222222222,0,0,0.07222222222222222,17.333333333333332,0)" xlink:href="#X"/><use transform="matrix(0.07222222222222222,0,0,0.07222222222222222,31.777777777777775,0)" xlink:href="#Y"/><use transform="matrix(0.07222222222222222,0,0,0.07222222222222222,46.222222222222214,0)" xlink:href="#Z"/><use transform="matrix(0.07222222222222222,0,0,0.07222222222222222,59.222222222222214,0)" xlink:href="#aa"/><use transform="matrix(0.07222222222222222,0,0,0.07222222222222222,64.92777777777776,0)" xlink:href="#ab"/><use transform="matrix(0.07222222222222222,0,0,0.07222222222222222,79.37222222222219,0)" xlink:href="#ac"/></g><path d="M30-248c118-7 216 8 213 122C240-48 200 0 122 0H30v-248zM63-27c89 8 146-16 146-99s-60-101-146-95v194" id="ad"/><path d="M100-194c62-1 85 37 85 99 1 63-27 99-86 99S16-35 15-95c0-66 28-99 85-99zM99-20c44 1 53-31 53-75 0-43-8-75-51-75s-53 32-53 75 10 74 51 75" id="ae"/><path d="M210-169c-67 3-38 105-44 169h-31v-121c0-29-5-50-35-48C34-165 62-65 56 0H25l-1-190h30c1 10-1 24 2 32 10-44 99-50 107 0 11-21 27-35 58-36 85-2 47 119 55 194h-31v-121c0-29-5-49-35-48" id="af"/><path d="M117-194c89-4 53 116 60 194h-32v-121c0-31-8-49-39-48C34-167 62-67 57 0H25l-1-190h30c1 10-1 24 2 32 11-22 29-35 61-36" id="ag"/><g id="d"><use transform="matrix(0.07222222222222222,0,0,0.07222222222222222,0,0)" xlink:href="#ad"/><use transform="matrix(0.07222222222222222,0,0,0.07222222222222222,18.705555555555552,0)" xlink:href="#ae"/><use transform="matrix(0.07222222222222222,0,0,0.07222222222222222,33.14999999999999,0)" xlink:href="#af"/><use transform="matrix(0.07222222222222222,0,0,0.07222222222222222,54.74444444444443,0)" xlink:href="#ab"/><use transform="matrix(0.07222222222222222,0,0,0.07222222222222222,69.18888888888887,0)" xlink:href="#aa"/><use transform="matrix(0.07222222222222222,0,0,0.07222222222222222,74.89444444444442,0)" xlink:href="#ag"/></g><path d="M59-47c-2 24 18 29 38 22v24C64 9 27 4 27-40v-127H5v-23h24l9-43h21v43h35v23H59v120" id="ah"/><g id="e"><use transform="matrix(0.07222222222222222,0,0,0.07222222222222222,0,0)" xlink:href="#ad"/><use transform="matrix(0.07222222222222222,0,0,0.07222222222222222,18.705555555555552,0)" xlink:href="#ab"/><use transform="matrix(0.07222222222222222,0,0,0.07222222222222222,33.14999999999999,0)" xlink:href="#ah"/><use transform="matrix(0.07222222222222222,0,0,0.07222222222222222,40.37222222222221,0)" xlink:href="#ab"/><use transform="matrix(0.07222222222222222,0,0,0.07222222222222222,54.816666666666656,0)" xlink:href="#W"/><use transform="matrix(0.07222222222222222,0,0,0.07222222222222222,72.14999999999999,0)" xlink:href="#Y"/><use transform="matrix(0.07222222222222222,0,0,0.07222222222222222,86.59444444444443,0)" xlink:href="#ah"/></g><path d="M137 0h-34L2-248h35l83 218 83-218h36" id="ai"/><path d="M114-163C36-179 61-72 57 0H25l-1-190h30c1 12-1 29 2 39 6-27 23-49 58-41v29" id="aj"/><path d="M87 75C49 33 22-17 22-94c0-76 28-126 65-167h31c-38 41-64 92-64 168S80 34 118 75H87" id="ak"/><path d="M160-131c35 5 61 23 61 61C221 17 115-2 30 0v-248c76 3 177-17 177 60 0 33-19 50-47 57zm-97-11c50-1 110 9 110-42 0-47-63-36-110-37v79zm0 115c55-2 124 14 124-45 0-56-70-42-124-44v89" id="al"/><path d="M33-261c38 41 65 92 65 168S71 34 33 75H2C39 34 66-17 66-93S39-220 2-261h31" id="am"/><g id="f"><use transform="matrix(0.07222222222222222,0,0,0.07222222222222222,0,0)" xlink:href="#ai"/><use transform="matrix(0.07222222222222222,0,0,0.07222222222222222,15.888888888888888,0)" xlink:href="#Y"/><use transform="matrix(0.07222222222222222,0,0,0.07222222222222222,30.333333333333332,0)" xlink:href="#Z"/><use transform="matrix(0.07222222222222222,0,0,0.07222222222222222,43.33333333333333,0)" xlink:href="#ah"/><use transform="matrix(0.07222222222222222,0,0,0.07222222222222222,50.55555555555555,0)" xlink:href="#Y"/><use transform="matrix(0.07222222222222222,0,0,0.07222222222222222,65,0)" xlink:href="#aj"/><use transform="matrix(0.07222222222222222,0,0,0.07222222222222222,73.59444444444445,0)" xlink:href="#ak"/><use transform="matrix(0.07222222222222222,0,0,0.07222222222222222,82.1888888888889,0)" xlink:href="#ad"/><use transform="matrix(0.07222222222222222,0,0,0.07222222222222222,100.89444444444445,0)" xlink:href="#al"/><use transform="matrix(0.07222222222222222,0,0,0.07222222222222222,118.22777777777776,0)" xlink:href="#am"/></g><g id="g"><use transform="matrix(0.07222222222222222,0,0,0.07222222222222222,0,0)" xlink:href="#ad"/><use transform="matrix(0.07222222222222222,0,0,0.07222222222222222,18.705555555555552,0)" xlink:href="#al"/></g><path d="M67-125c0 53 21 87 73 88 37 1 54-22 65-47l45 17C233-25 199 4 140 4 58 4 20-42 15-125 8-235 124-281 211-232c18 10 29 29 36 50l-46 12c-8-25-30-41-62-41-52 0-71 34-72 86" id="an"/><path d="M110-194c64 0 96 36 96 99 0 64-35 99-97 99-61 0-95-36-95-99 0-62 34-99 96-99zm-1 164c35 0 45-28 45-65 0-40-10-65-43-65-34 0-45 26-45 65 0 36 10 65 43 65" id="ao"/><path d="M115-3C79 11 28 4 28-45v-112H4v-33h27l15-45h31v45h36v33H77v99c-1 23 16 31 38 25v30" id="ap"/><path d="M133-34C117-15 103 5 69 4 32 3 11-16 11-54c-1-60 55-63 116-61 1-26-3-47-28-47-18 1-26 9-28 27l-52-2c7-38 36-58 82-57s74 22 75 68l1 82c-1 14 12 18 25 15v27c-30 8-71 5-69-32zm-48 3c29 0 43-24 42-57-32 0-66-3-65 30 0 17 8 27 23 27" id="aq"/><path d="M185-48c-13 30-37 53-82 52C43 2 14-33 14-96s30-98 90-98c62 0 83 45 84 108H66c0 31 8 55 39 56 18 0 30-7 34-22zm-45-69c5-46-57-63-70-21-2 6-4 13-4 21h74" id="ar"/><g id="h"><use transform="matrix(0.07222222222222222,0,0,0.07222222222222222,0,0)" xlink:href="#an"/><use transform="matrix(0.07222222222222222,0,0,0.07222222222222222,18.705555555555552,0)" xlink:href="#ao"/><use transform="matrix(0.07222222222222222,0,0,0.07222222222222222,34.52222222222222,0)" xlink:href="#S"/><use transform="matrix(0.07222222222222222,0,0,0.07222222222222222,50.33888888888888,0)" xlink:href="#ap"/><use transform="matrix(0.07222222222222222,0,0,0.07222222222222222,58.93333333333332,0)" xlink:href="#aq"/><use transform="matrix(0.07222222222222222,0,0,0.07222222222222222,73.37777777777777,0)" xlink:href="#Q"/><use transform="matrix(0.07222222222222222,0,0,0.07222222222222222,80.6,0)" xlink:href="#S"/><use transform="matrix(0.07222222222222222,0,0,0.07222222222222222,96.41666666666666,0)" xlink:href="#ar"/><use transform="matrix(0.07222222222222222,0,0,0.07222222222222222,110.8611111111111,0)" xlink:href="#R"/></g><path d="M24 0v-248h195v40H76v63h132v40H76v65h150V0H24" id="as"/><path d="M128 0H69L1-190h53L99-40l48-150h52" id="at"/><path d="M220-157c-53 9-28 100-34 157h-49v-107c1-27-5-49-29-50C55-147 81-57 75 0H25l-1-190h47c2 12-1 28 3 38 10-53 101-56 108 0 13-22 24-43 59-42 82 1 51 116 57 194h-49v-107c-1-25-5-48-29-50" id="au"/><g id="i"><use transform="matrix(0.07222222222222222,0,0,0.07222222222222222,0,0)" xlink:href="#as"/><use transform="matrix(0.07222222222222222,0,0,0.07222222222222222,17.333333333333332,0)" xlink:href="#S"/><use transform="matrix(0.07222222222222222,0,0,0.07222222222222222,33.15,0)" xlink:href="#at"/><use transform="matrix(0.07222222222222222,0,0,0.07222222222222222,47.59444444444444,0)" xlink:href="#Q"/><use transform="matrix(0.07222222222222222,0,0,0.07222222222222222,54.81666666666666,0)" xlink:href="#R"/><use transform="matrix(0.07222222222222222,0,0,0.07222222222222222,64.92777777777778,0)" xlink:href="#ao"/><use transform="matrix(0.07222222222222222,0,0,0.07222222222222222,80.74444444444444,0)" xlink:href="#S"/><use transform="matrix(0.07222222222222222,0,0,0.07222222222222222,96.5611111111111,0)" xlink:href="#au"/><use transform="matrix(0.07222222222222222,0,0,0.07222222222222222,119.67222222222222,0)" xlink:href="#ar"/><use transform="matrix(0.07222222222222222,0,0,0.07222222222222222,134.11666666666667,0)" xlink:href="#S"/><use transform="matrix(0.07222222222222222,0,0,0.07222222222222222,149.93333333333337,0)" xlink:href="#ap"/></g><path d="M33 0v-38h34V0H33" id="av"/><path d="M30-248c87 1 191-15 191 75 0 78-77 80-158 76V0H30v-248zm33 125c57 0 124 11 124-50 0-59-68-47-124-48v98" id="aw"/><path d="M63-220v92h138v28H63V0H30v-248h175v28H63" id="ax"/><g id="j"><use transform="matrix(0.07222222222222222,0,0,0.07222222222222222,0,0)" xlink:href="#av"/><use transform="matrix(0.07222222222222222,0,0,0.07222222222222222,7.222222222222221,0)" xlink:href="#aw"/><use transform="matrix(0.07222222222222222,0,0,0.07222222222222222,24.555555555555554,0)" xlink:href="#ad"/><use transform="matrix(0.07222222222222222,0,0,0.07222222222222222,43.261111111111106,0)" xlink:href="#ax"/></g><path d="M212-179c-10-28-35-45-73-45-59 0-87 40-87 99 0 60 29 101 89 101 43 0 62-24 78-52l27 14C228-24 195 4 139 4 59 4 22-46 18-125c-6-104 99-153 187-111 19 9 31 26 39 46" id="ay"/><g id="k"><use transform="matrix(0.07222222222222222,0,0,0.07222222222222222,0,0)" xlink:href="#av"/><use transform="matrix(0.07222222222222222,0,0,0.07222222222222222,7.222222222222221,0)" xlink:href="#ay"/><use transform="matrix(0.07222222222222222,0,0,0.07222222222222222,25.927777777777774,0)" xlink:href="#W"/><use transform="matrix(0.07222222222222222,0,0,0.07222222222222222,43.261111111111106,0)" xlink:href="#ai"/></g><path d="M194 0L95-120 63-95V0H30v-248h33v124l119-124h40L117-140 236 0h-42" id="az"/><path d="M177-190C167-65 218 103 67 71c-23-6-38-20-44-43l32-5c15 47 100 32 89-28v-30C133-14 115 1 83 1 29 1 15-40 15-95c0-56 16-97 71-98 29-1 48 16 59 35 1-10 0-23 2-32h30zM94-22c36 0 50-32 50-73 0-42-14-75-50-75-39 0-46 34-46 75s6 73 46 73" id="aA"/><g id="l"><use transform="matrix(0.07222222222222222,0,0,0.07222222222222222,0,0)" xlink:href="#aw"/><use transform="matrix(0.07222222222222222,0,0,0.07222222222222222,17.333333333333332,0)" xlink:href="#aa"/><use transform="matrix(0.07222222222222222,0,0,0.07222222222222222,23.038888888888888,0)" xlink:href="#X"/><use transform="matrix(0.07222222222222222,0,0,0.07222222222222222,37.48333333333334,0)" xlink:href="#Y"/><use transform="matrix(0.07222222222222222,0,0,0.07222222222222222,51.927777777777784,0)" xlink:href="#ac"/><use transform="matrix(0.07222222222222222,0,0,0.07222222222222222,57.63333333333333,0)" xlink:href="#aa"/><use transform="matrix(0.07222222222222222,0,0,0.07222222222222222,63.33888888888889,0)" xlink:href="#ag"/><use transform="matrix(0.07222222222222222,0,0,0.07222222222222222,77.78333333333333,0)" xlink:href="#Y"/><use transform="matrix(0.07222222222222222,0,0,0.07222222222222222,92.22777777777777,0)" xlink:href="#ak"/><use transform="matrix(0.07222222222222222,0,0,0.07222222222222222,100.82222222222222,0)" xlink:href="#az"/><use transform="matrix(0.07222222222222222,0,0,0.07222222222222222,118.15555555555555,0)" xlink:href="#ab"/><use transform="matrix(0.07222222222222222,0,0,0.07222222222222222,132.6,0)" xlink:href="#aA"/><use transform="matrix(0.07222222222222222,0,0,0.07222222222222222,147.04444444444442,0)" xlink:href="#aA"/><use transform="matrix(0.07222222222222222,0,0,0.07222222222222222,161.48888888888888,0)" xlink:href="#ac"/><use transform="matrix(0.07222222222222222,0,0,0.07222222222222222,167.19444444444443,0)" xlink:href="#Y"/><use transform="matrix(0.07222222222222222,0,0,0.07222222222222222,181.63888888888889,0)" xlink:href="#am"/></g><path d="M16-82v-28h88v28H16" id="aB"/><path d="M135-143c-3-34-86-38-87 0 15 53 115 12 119 90S17 21 10-45l28-5c4 36 97 45 98 0-10-56-113-15-118-90-4-57 82-63 122-42 12 7 21 19 24 35" id="aC"/><g id="m"><use transform="matrix(0.07222222222222222,0,0,0.07222222222222222,0,0)" xlink:href="#aw"/><use transform="matrix(0.07222222222222222,0,0,0.07222222222222222,17.333333333333332,0)" xlink:href="#aj"/><use transform="matrix(0.07222222222222222,0,0,0.07222222222222222,25.927777777777774,0)" xlink:href="#Y"/><use transform="matrix(0.07222222222222222,0,0,0.07222222222222222,40.37222222222222,0)" xlink:href="#aB"/><use transform="matrix(0.07222222222222222,0,0,0.07222222222222222,48.96666666666666,0)" xlink:href="#X"/><use transform="matrix(0.07222222222222222,0,0,0.07222222222222222,63.411111111111104,0)" xlink:href="#aj"/><use transform="matrix(0.07222222222222222,0,0,0.07222222222222222,72.00555555555555,0)" xlink:href="#ae"/><use transform="matrix(0.07222222222222222,0,0,0.07222222222222222,86.44999999999999,0)" xlink:href="#Z"/><use transform="matrix(0.07222222222222222,0,0,0.07222222222222222,99.44999999999999,0)" xlink:href="#Y"/><use transform="matrix(0.07222222222222222,0,0,0.07222222222222222,113.89444444444443,0)" xlink:href="#aC"/><use transform="matrix(0.07222222222222222,0,0,0.07222222222222222,126.89444444444443,0)" xlink:href="#aC"/></g><path d="M30 0v-248h187v28H63v79h144v27H63v87h162V0H30" id="aD"/><path d="M205 0l-28-72H64L36 0H1l101-248h38L239 0h-34zm-38-99l-47-123c-12 45-31 82-46 123h93" id="aE"/><path d="M0 4l72-265h28L28 4H0" id="aF"/><path d="M33 0v-248h34V0H33" id="aG"/><path d="M84 4C-5 8 30-112 23-190h32v120c0 31 7 50 39 49 72-2 45-101 50-169h31l1 190h-30c-1-10 1-25-2-33-11 22-28 36-60 37" id="aH"/><path d="M9 0v-24l116-142H16v-24h144v24L44-24h123V0H9" id="aI"/><g id="n"><use transform="matrix(0.07222222222222222,0,0,0.07222222222222222,0,0)" xlink:href="#aD"/><use transform="matrix(0.07222222222222222,0,0,0.07222222222222222,17.333333333333332,0)" xlink:href="#ad"/><use transform="matrix(0.07222222222222222,0,0,0.07222222222222222,36.038888888888884,0)" xlink:href="#aE"/><use transform="matrix(0.07222222222222222,0,0,0.07222222222222222,53.37222222222222,0)" xlink:href="#aF"/><use transform="matrix(0.07222222222222222,0,0,0.07222222222222222,60.59444444444444,0)" xlink:href="#ai"/><use transform="matrix(0.07222222222222222,0,0,0.07222222222222222,77.92777777777778,0)" xlink:href="#aG"/><use transform="matrix(0.07222222222222222,0,0,0.07222222222222222,85.15,0)" xlink:href="#aC"/><use transform="matrix(0.07222222222222222,0,0,0.07222222222222222,98.15,0)" xlink:href="#aH"/><use transform="matrix(0.07222222222222222,0,0,0.07222222222222222,112.59444444444445,0)" xlink:href="#ab"/><use transform="matrix(0.07222222222222222,0,0,0.07222222222222222,127.03888888888889,0)" xlink:href="#ac"/><use transform="matrix(0.07222222222222222,0,0,0.07222222222222222,132.74444444444444,0)" xlink:href="#aa"/><use transform="matrix(0.07222222222222222,0,0,0.07222222222222222,138.45,0)" xlink:href="#aI"/><use transform="matrix(0.07222222222222222,0,0,0.07222222222222222,151.45,0)" xlink:href="#ab"/><use transform="matrix(0.07222222222222222,0,0,0.07222222222222222,165.89444444444447,0)" xlink:href="#ah"/><use transform="matrix(0.07222222222222222,0,0,0.07222222222222222,173.11666666666667,0)" xlink:href="#aa"/><use transform="matrix(0.07222222222222222,0,0,0.07222222222222222,178.82222222222225,0)" xlink:href="#ae"/><use transform="matrix(0.07222222222222222,0,0,0.07222222222222222,193.26666666666665,0)" xlink:href="#ag"/></g><g id="o"><use transform="matrix(0.07222222222222222,0,0,0.07222222222222222,0,0)" xlink:href="#ad"/><use transform="matrix(0.07222222222222222,0,0,0.07222222222222222,18.705555555555552,0)" xlink:href="#ab"/><use transform="matrix(0.07222222222222222,0,0,0.07222222222222222,33.14999999999999,0)" xlink:href="#ah"/><use transform="matrix(0.07222222222222222,0,0,0.07222222222222222,40.37222222222221,0)" xlink:href="#ab"/></g><g id="p"><use transform="matrix(0.07222222222222222,0,0,0.07222222222222222,0,0)" xlink:href="#ay"/><use transform="matrix(0.07222222222222222,0,0,0.07222222222222222,18.705555555555552,0)" xlink:href="#ac"/><use transform="matrix(0.07222222222222222,0,0,0.07222222222222222,24.411111111111108,0)" xlink:href="#Y"/><use transform="matrix(0.07222222222222222,0,0,0.07222222222222222,38.855555555555554,0)" xlink:href="#ab"/><use transform="matrix(0.07222222222222222,0,0,0.07222222222222222,53.3,0)" xlink:href="#ag"/><use transform="matrix(0.07222222222222222,0,0,0.07222222222222222,67.74444444444444,0)" xlink:href="#aa"/><use transform="matrix(0.07222222222222222,0,0,0.07222222222222222,73.44999999999999,0)" xlink:href="#ag"/><use transform="matrix(0.07222222222222222,0,0,0.07222222222222222,87.89444444444443,0)" xlink:href="#aA"/></g><path d="M232-93c-1 65-40 97-104 97C67 4 28-28 28-90v-158h33c8 89-33 224 67 224 102 0 64-133 71-224h33v155" id="aJ"/><path d="M108 0H70L1-190h34L89-25l56-165h34" id="aK"/><g id="q"><use transform="matrix(0.07222222222222222,0,0,0.07222222222222222,0,0)" xlink:href="#aJ"/><use transform="matrix(0.07222222222222222,0,0,0.07222222222222222,18.705555555555552,0)" xlink:href="#ag"/><use transform="matrix(0.07222222222222222,0,0,0.07222222222222222,33.14999999999999,0)" xlink:href="#aa"/><use transform="matrix(0.07222222222222222,0,0,0.07222222222222222,38.85555555555555,0)" xlink:href="#aB"/><use transform="matrix(0.07222222222222222,0,0,0.07222222222222222,47.44999999999999,0)" xlink:href="#aK"/><use transform="matrix(0.07222222222222222,0,0,0.07222222222222222,60.44999999999999,0)" xlink:href="#ab"/><use transform="matrix(0.07222222222222222,0,0,0.07222222222222222,74.89444444444443,0)" xlink:href="#aj"/><use transform="matrix(0.07222222222222222,0,0,0.07222222222222222,83.48888888888888,0)" xlink:href="#aa"/><use transform="matrix(0.07222222222222222,0,0,0.07222222222222222,89.19444444444444,0)" xlink:href="#ab"/><use transform="matrix(0.07222222222222222,0,0,0.07222222222222222,103.63888888888889,0)" xlink:href="#ah"/><use transform="matrix(0.07222222222222222,0,0,0.07222222222222222,110.86111111111109,0)" xlink:href="#Y"/></g><path d="M179-190L93 31C79 59 56 82 12 73V49c39 6 53-20 64-50L1-190h34L92-34l54-156h33" id="aL"/><g id="r"><use transform="matrix(0.07222222222222222,0,0,0.07222222222222222,0,0)" xlink:href="#aE"/><use transform="matrix(0.07222222222222222,0,0,0.07222222222222222,17.333333333333332,0)" xlink:href="#ag"/><use transform="matrix(0.07222222222222222,0,0,0.07222222222222222,31.777777777777775,0)" xlink:href="#ab"/><use transform="matrix(0.07222222222222222,0,0,0.07222222222222222,46.222222222222214,0)" xlink:href="#ac"/><use transform="matrix(0.07222222222222222,0,0,0.07222222222222222,51.92777777777777,0)" xlink:href="#aL"/><use transform="matrix(0.07222222222222222,0,0,0.07222222222222222,64.92777777777776,0)" xlink:href="#aC"/><use transform="matrix(0.07222222222222222,0,0,0.07222222222222222,77.92777777777778,0)" xlink:href="#aa"/><use transform="matrix(0.07222222222222222,0,0,0.07222222222222222,83.63333333333331,0)" xlink:href="#aC"/></g><g id="s"><use transform="matrix(0.07222222222222222,0,0,0.07222222222222222,0,0)" xlink:href="#al"/><use transform="matrix(0.07222222222222222,0,0,0.07222222222222222,17.333333333333332,0)" xlink:href="#aG"/><use transform="matrix(0.07222222222222222,0,0,0.07222222222222222,24.555555555555554,0)" xlink:href="#aB"/><use transform="matrix(0.07222222222222222,0,0,0.07222222222222222,33.15,0)" xlink:href="#aK"/><use transform="matrix(0.07222222222222222,0,0,0.07222222222222222,46.15,0)" xlink:href="#ab"/><use transform="matrix(0.07222222222222222,0,0,0.07222222222222222,60.59444444444444,0)" xlink:href="#aj"/><use transform="matrix(0.07222222222222222,0,0,0.07222222222222222,69.18888888888888,0)" xlink:href="#aa"/><use transform="matrix(0.07222222222222222,0,0,0.07222222222222222,74.89444444444443,0)" xlink:href="#ab"/><use transform="matrix(0.07222222222222222,0,0,0.07222222222222222,89.33888888888887,0)" xlink:href="#ah"/><use transform="matrix(0.07222222222222222,0,0,0.07222222222222222,96.5611111111111,0)" xlink:href="#Y"/></g><g id="t"><use transform="matrix(0.07222222222222222,0,0,0.07222222222222222,0,0)" xlink:href="#aD"/><use transform="matrix(0.07222222222222222,0,0,0.07222222222222222,17.333333333333332,0)" xlink:href="#aC"/><use transform="matrix(0.07222222222222222,0,0,0.07222222222222222,30.333333333333332,0)" xlink:href="#aC"/><use transform="matrix(0.07222222222222222,0,0,0.07222222222222222,43.33333333333333,0)" xlink:href="#Y"/><use transform="matrix(0.07222222222222222,0,0,0.07222222222222222,57.77777777777777,0)" xlink:href="#ag"/><use transform="matrix(0.07222222222222222,0,0,0.07222222222222222,72.22222222222221,0)" xlink:href="#ah"/><use transform="matrix(0.07222222222222222,0,0,0.07222222222222222,79.44444444444441,0)" xlink:href="#aa"/><use transform="matrix(0.07222222222222222,0,0,0.07222222222222222,85.14999999999998,0)" xlink:href="#ab"/><use transform="matrix(0.07222222222222222,0,0,0.07222222222222222,99.59444444444442,0)" xlink:href="#ac"/></g><path d="M115-194c53 0 69 39 70 98 0 66-23 100-70 100C84 3 66-7 56-30L54 0H23l1-261h32v101c10-23 28-34 59-34zm-8 174c40 0 45-34 45-75 0-40-5-75-45-74-42 0-51 32-51 76 0 43 10 73 51 73" id="aM"/><g id="u"><use transform="matrix(0.07222222222222222,0,0,0.07222222222222222,0,0)" xlink:href="#ai"/><use transform="matrix(0.07222222222222222,0,0,0.07222222222222222,15.383333333333331,0)" xlink:href="#ab"/><use transform="matrix(0.07222222222222222,0,0,0.07222222222222222,29.827777777777776,0)" xlink:href="#aj"/><use transform="matrix(0.07222222222222222,0,0,0.07222222222222222,38.42222222222222,0)" xlink:href="#aa"/><use transform="matrix(0.07222222222222222,0,0,0.07222222222222222,44.12777777777777,0)" xlink:href="#ab"/><use transform="matrix(0.07222222222222222,0,0,0.07222222222222222,58.572222222222216,0)" xlink:href="#aM"/><use transform="matrix(0.07222222222222222,0,0,0.07222222222222222,73.01666666666665,0)" xlink:href="#ac"/><use transform="matrix(0.07222222222222222,0,0,0.07222222222222222,78.7222222222222,0)" xlink:href="#Y"/><use transform="matrix(0.07222222222222222,0,0,0.07222222222222222,93.16666666666664,0)" xlink:href="#aC"/></g><g id="v"><use transform="matrix(0.07222222222222222,0,0,0.07222222222222222,0,0)" xlink:href="#ad"/><use transform="matrix(0.07222222222222222,0,0,0.07222222222222222,18.705555555555552,0)" xlink:href="#al"/></g><g id="w"><use transform="matrix(0.07222222222222222,0,0,0.07222222222222222,0,0)" xlink:href="#ad"/><use transform="matrix(0.07222222222222222,0,0,0.07222222222222222,18.705555555555552,0)" xlink:href="#aj"/><use transform="matrix(0.07222222222222222,0,0,0.07222222222222222,27.299999999999997,0)" xlink:href="#aa"/><use transform="matrix(0.07222222222222222,0,0,0.07222222222222222,33.00555555555555,0)" xlink:href="#aK"/><use transform="matrix(0.07222222222222222,0,0,0.07222222222222222,46.00555555555555,0)" xlink:href="#Y"/><use transform="matrix(0.07222222222222222,0,0,0.07222222222222222,60.449999999999996,0)" xlink:href="#aj"/></g><g id="x"><use transform="matrix(0.07222222222222222,0,0,0.07222222222222222,0,0)" xlink:href="#ax"/><use transform="matrix(0.07222222222222222,0,0,0.07222222222222222,15.816666666666665,0)" xlink:href="#aa"/><use transform="matrix(0.07222222222222222,0,0,0.07222222222222222,21.52222222222222,0)" xlink:href="#ag"/><use transform="matrix(0.07222222222222222,0,0,0.07222222222222222,35.96666666666666,0)" xlink:href="#Y"/><use transform="matrix(0.07222222222222222,0,0,0.07222222222222222,50.411111111111104,0)" xlink:href="#aB"/><use transform="matrix(0.07222222222222222,0,0,0.07222222222222222,59.00555555555554,0)" xlink:href="#ah"/><use transform="matrix(0.07222222222222222,0,0,0.07222222222222222,66.22777777777776,0)" xlink:href="#aH"/><use transform="matrix(0.07222222222222222,0,0,0.07222222222222222,80.6722222222222,0)" xlink:href="#ag"/><use transform="matrix(0.07222222222222222,0,0,0.07222222222222222,95.11666666666665,0)" xlink:href="#Y"/></g><g id="y"><use transform="matrix(0.07222222222222222,0,0,0.07222222222222222,0,0)" xlink:href="#Y"/><use transform="matrix(0.07222222222222222,0,0,0.07222222222222222,14.444444444444443,0)" xlink:href="#ag"/><use transform="matrix(0.07222222222222222,0,0,0.07222222222222222,28.888888888888886,0)" xlink:href="#aA"/><use transform="matrix(0.07222222222222222,0,0,0.07222222222222222,43.33333333333333,0)" xlink:href="#aa"/><use transform="matrix(0.07222222222222222,0,0,0.07222222222222222,49.038888888888884,0)" xlink:href="#ag"/><use transform="matrix(0.07222222222222222,0,0,0.07222222222222222,63.48333333333333,0)" xlink:href="#Y"/></g><path d="M106-169C34-169 62-67 57 0H25v-261h32l-1 103c12-21 28-36 61-36 89 0 53 116 60 194h-32v-121c2-32-8-49-39-48" id="aN"/><g id="z"><use transform="matrix(0.07222222222222222,0,0,0.07222222222222222,0,0)" xlink:href="#ay"/><use transform="matrix(0.07222222222222222,0,0,0.07222222222222222,18.705555555555552,0)" xlink:href="#aN"/><use transform="matrix(0.07222222222222222,0,0,0.07222222222222222,33.14999999999999,0)" xlink:href="#ab"/><use transform="matrix(0.07222222222222222,0,0,0.07222222222222222,47.594444444444434,0)" xlink:href="#ah"/></g><path d="M127-220V0H93v-220H8v-28h204v28h-85" id="aO"/><g id="A"><use transform="matrix(0.07222222222222222,0,0,0.07222222222222222,0,0)" xlink:href="#aO"/><use transform="matrix(0.07222222222222222,0,0,0.07222222222222222,14.877777777777776,0)" xlink:href="#aj"/><use transform="matrix(0.07222222222222222,0,0,0.07222222222222222,23.47222222222222,0)" xlink:href="#ab"/><use transform="matrix(0.07222222222222222,0,0,0.07222222222222222,37.916666666666664,0)" xlink:href="#aa"/><use transform="matrix(0.07222222222222222,0,0,0.07222222222222222,43.62222222222222,0)" xlink:href="#ag"/><use transform="matrix(0.07222222222222222,0,0,0.07222222222222222,58.06666666666666,0)" xlink:href="#aa"/><use transform="matrix(0.07222222222222222,0,0,0.07222222222222222,63.77222222222222,0)" xlink:href="#ag"/><use transform="matrix(0.07222222222222222,0,0,0.07222222222222222,78.21666666666668,0)" xlink:href="#aA"/></g><g id="B"><use transform="matrix(0.07222222222222222,0,0,0.07222222222222222,0,0)" xlink:href="#ax"/><use transform="matrix(0.07222222222222222,0,0,0.07222222222222222,15.816666666666665,0)" xlink:href="#ab"/><use transform="matrix(0.07222222222222222,0,0,0.07222222222222222,30.261111111111106,0)" xlink:href="#Z"/><use transform="matrix(0.07222222222222222,0,0,0.07222222222222222,43.261111111111106,0)" xlink:href="#ah"/><use transform="matrix(0.07222222222222222,0,0,0.07222222222222222,50.48333333333333,0)" xlink:href="#ae"/><use transform="matrix(0.07222222222222222,0,0,0.07222222222222222,64.92777777777778,0)" xlink:href="#aj"/><use transform="matrix(0.07222222222222222,0,0,0.07222222222222222,73.52222222222223,0)" xlink:href="#aL"/></g><path d="M240 0l2-218c-23 76-54 145-80 218h-23L58-218 59 0H30v-248h44l77 211c21-75 51-140 76-211h43V0h-30" id="aP"/><path d="M85-194c31 0 48 13 60 33l-1-100h32l1 261h-30c-2-10 0-23-3-31C134-8 116 4 85 4 32 4 16-35 15-94c0-66 23-100 70-100zm9 24c-40 0-46 34-46 75 0 40 6 74 45 74 42 0 51-32 51-76 0-42-9-74-50-73" id="aQ"/><g id="C"><use transform="matrix(0.07222222222222222,0,0,0.07222222222222222,0,0)" xlink:href="#aP"/><use transform="matrix(0.07222222222222222,0,0,0.07222222222222222,21.59444444444444,0)" xlink:href="#ae"/><use transform="matrix(0.07222222222222222,0,0,0.07222222222222222,36.038888888888884,0)" xlink:href="#aQ"/><use transform="matrix(0.07222222222222222,0,0,0.07222222222222222,50.48333333333333,0)" xlink:href="#Y"/><use transform="matrix(0.07222222222222222,0,0,0.07222222222222222,64.92777777777778,0)" xlink:href="#ac"/></g><path d="M197 0v-115H63V0H30v-248h33v105h134v-105h34V0h-34" id="aR"/><g id="D"><use transform="matrix(0.07222222222222222,0,0,0.07222222222222222,0,0)" xlink:href="#aR"/><use transform="matrix(0.07222222222222222,0,0,0.07222222222222222,18.705555555555552,0)" xlink:href="#Y"/><use transform="matrix(0.07222222222222222,0,0,0.07222222222222222,33.14999999999999,0)" xlink:href="#aj"/><use transform="matrix(0.07222222222222222,0,0,0.07222222222222222,41.74444444444443,0)" xlink:href="#ae"/></g><path d="M233-177c-1 41-23 64-60 70L243 0h-38l-65-103H63V0H30v-248c88 3 205-21 203 71zM63-129c60-2 137 13 137-47 0-61-80-42-137-45v92" id="aS"/><g id="E"><use transform="matrix(0.07222222222222222,0,0,0.07222222222222222,0,0)" xlink:href="#ay"/><use transform="matrix(0.07222222222222222,0,0,0.07222222222222222,18.705555555555552,0)" xlink:href="#aS"/><use transform="matrix(0.07222222222222222,0,0,0.07222222222222222,37.411111111111104,0)" xlink:href="#aP"/></g><path d="M101-234c-31-9-42 10-38 44h38v23H63V0H32v-167H5v-23h27c-7-52 17-82 69-68v24" id="aT"/><g id="F"><use transform="matrix(0.07222222222222222,0,0,0.07222222222222222,0,0)" xlink:href="#aG"/><use transform="matrix(0.07222222222222222,0,0,0.07222222222222222,7.222222222222221,0)" xlink:href="#ag"/><use transform="matrix(0.07222222222222222,0,0,0.07222222222222222,21.666666666666664,0)" xlink:href="#aT"/><use transform="matrix(0.07222222222222222,0,0,0.07222222222222222,28.888888888888886,0)" xlink:href="#Y"/><use transform="matrix(0.07222222222222222,0,0,0.07222222222222222,43.33333333333333,0)" xlink:href="#aj"/><use transform="matrix(0.07222222222222222,0,0,0.07222222222222222,51.92777777777777,0)" xlink:href="#Y"/><use transform="matrix(0.07222222222222222,0,0,0.07222222222222222,66.3722222222222,0)" xlink:href="#ag"/><use transform="matrix(0.07222222222222222,0,0,0.07222222222222222,80.81666666666665,0)" xlink:href="#Z"/><use transform="matrix(0.07222222222222222,0,0,0.07222222222222222,93.81666666666663,0)" xlink:href="#Y"/></g><g id="G"><use transform="matrix(0.07222222222222222,0,0,0.07222222222222222,0,0)" xlink:href="#aD"/><use transform="matrix(0.07222222222222222,0,0,0.07222222222222222,17.333333333333332,0)" xlink:href="#ag"/><use transform="matrix(0.07222222222222222,0,0,0.07222222222222222,31.777777777777775,0)" xlink:href="#aA"/><use transform="matrix(0.07222222222222222,0,0,0.07222222222222222,46.222222222222214,0)" xlink:href="#aa"/><use transform="matrix(0.07222222222222222,0,0,0.07222222222222222,51.92777777777777,0)" xlink:href="#ag"/><use transform="matrix(0.07222222222222222,0,0,0.07222222222222222,66.3722222222222,0)" xlink:href="#Y"/></g><g id="H"><use transform="matrix(0.07222222222222222,0,0,0.07222222222222222,0,0)" xlink:href="#aM"/><use transform="matrix(0.07222222222222222,0,0,0.07222222222222222,14.444444444444443,0)" xlink:href="#aH"/><use transform="matrix(0.07222222222222222,0,0,0.07222222222222222,28.888888888888886,0)" xlink:href="#aa"/><use transform="matrix(0.07222222222222222,0,0,0.07222222222222222,34.59444444444444,0)" xlink:href="#ac"/><use transform="matrix(0.07222222222222222,0,0,0.07222222222222222,40.3,0)" xlink:href="#aQ"/><use transform="matrix(0.07222222222222222,0,0,0.07222222222222222,54.74444444444444,0)" xlink:href="#Y"/><use transform="matrix(0.07222222222222222,0,0,0.07222222222222222,69.18888888888888,0)" xlink:href="#aj"/></g><g id="I"><use transform="matrix(0.07222222222222222,0,0,0.07222222222222222,0,0)" xlink:href="#aD"/><use transform="matrix(0.07222222222222222,0,0,0.07222222222222222,17.333333333333332,0)" xlink:href="#af"/><use transform="matrix(0.07222222222222222,0,0,0.07222222222222222,38.92777777777778,0)" xlink:href="#aM"/><use transform="matrix(0.07222222222222222,0,0,0.07222222222222222,53.37222222222222,0)" xlink:href="#Y"/><use transform="matrix(0.07222222222222222,0,0,0.07222222222222222,67.81666666666666,0)" xlink:href="#aQ"/><use transform="matrix(0.07222222222222222,0,0,0.07222222222222222,82.2611111111111,0)" xlink:href="#aQ"/><use transform="matrix(0.07222222222222222,0,0,0.07222222222222222,96.70555555555555,0)" xlink:href="#aa"/><use transform="matrix(0.07222222222222222,0,0,0.07222222222222222,102.4111111111111,0)" xlink:href="#ag"/><use transform="matrix(0.07222222222222222,0,0,0.07222222222222222,116.85555555555554,0)" xlink:href="#aA"/></g><g id="J"><use transform="matrix(0.07222222222222222,0,0,0.07222222222222222,0,0)" xlink:href="#aD"/><use transform="matrix(0.07222222222222222,0,0,0.07222222222222222,17.333333333333332,0)" xlink:href="#ag"/><use transform="matrix(0.07222222222222222,0,0,0.07222222222222222,31.777777777777775,0)" xlink:href="#aA"/><use transform="matrix(0.07222222222222222,0,0,0.07222222222222222,46.222222222222214,0)" xlink:href="#aa"/><use transform="matrix(0.07222222222222222,0,0,0.07222222222222222,51.92777777777777,0)" xlink:href="#ag"/><use transform="matrix(0.07222222222222222,0,0,0.07222222222222222,66.3722222222222,0)" xlink:href="#Y"/></g><g id="K"><use transform="matrix(0.07222222222222222,0,0,0.07222222222222222,0,0)" xlink:href="#aE"/><use transform="matrix(0.07222222222222222,0,0,0.07222222222222222,17.333333333333332,0)" xlink:href="#aH"/><use transform="matrix(0.07222222222222222,0,0,0.07222222222222222,31.777777777777775,0)" xlink:href="#ah"/><use transform="matrix(0.07222222222222222,0,0,0.07222222222222222,38.99999999999999,0)" xlink:href="#aN"/><use transform="matrix(0.07222222222222222,0,0,0.07222222222222222,53.44444444444444,0)" xlink:href="#Y"/><use transform="matrix(0.07222222222222222,0,0,0.07222222222222222,67.88888888888889,0)" xlink:href="#ag"/><use transform="matrix(0.07222222222222222,0,0,0.07222222222222222,82.33333333333333,0)" xlink:href="#ah"/><use transform="matrix(0.07222222222222222,0,0,0.07222222222222222,89.55555555555554,0)" xlink:href="#aa"/><use transform="matrix(0.07222222222222222,0,0,0.07222222222222222,95.26111111111109,0)" xlink:href="#Z"/><use transform="matrix(0.07222222222222222,0,0,0.07222222222222222,108.26111111111109,0)" xlink:href="#ab"/><use transform="matrix(0.07222222222222222,0,0,0.07222222222222222,122.70555555555553,0)" xlink:href="#ah"/><use transform="matrix(0.07222222222222222,0,0,0.07222222222222222,129.92777777777775,0)" xlink:href="#aa"/><use transform="matrix(0.07222222222222222,0,0,0.07222222222222222,135.6333333333333,0)" xlink:href="#ae"/><use transform="matrix(0.07222222222222222,0,0,0.07222222222222222,150.07777777777773,0)" xlink:href="#ag"/></g><path d="M140-251c81 0 123 46 123 126C263-46 219 4 140 4 59 4 17-45 17-125s42-126 123-126zm0 227c63 0 89-41 89-101s-29-99-89-99c-61 0-89 39-89 99S79-25 140-24" id="aU"/><g id="L"><use transform="matrix(0.07222222222222222,0,0,0.07222222222222222,0,0)" xlink:href="#aU"/><use transform="matrix(0.07222222222222222,0,0,0.07222222222222222,20.22222222222222,0)" xlink:href="#aM"/><use transform="matrix(0.07222222222222222,0,0,0.07222222222222222,34.666666666666664,0)" xlink:href="#aC"/><use transform="matrix(0.07222222222222222,0,0,0.07222222222222222,47.666666666666664,0)" xlink:href="#Y"/><use transform="matrix(0.07222222222222222,0,0,0.07222222222222222,62.11111111111111,0)" xlink:href="#aj"/><use transform="matrix(0.07222222222222222,0,0,0.07222222222222222,70.70555555555555,0)" xlink:href="#aK"/><use transform="matrix(0.07222222222222222,0,0,0.07222222222222222,83.70555555555555,0)" xlink:href="#ab"/><use transform="matrix(0.07222222222222222,0,0,0.07222222222222222,98.14999999999999,0)" xlink:href="#aM"/><use transform="matrix(0.07222222222222222,0,0,0.07222222222222222,112.59444444444443,0)" xlink:href="#aa"/><use transform="matrix(0.07222222222222222,0,0,0.07222222222222222,118.29999999999998,0)" xlink:href="#ac"/><use transform="matrix(0.07222222222222222,0,0,0.07222222222222222,124.00555555555553,0)" xlink:href="#aa"/><use transform="matrix(0.07222222222222222,0,0,0.07222222222222222,129.71111111111108,0)" xlink:href="#ah"/><use transform="matrix(0.07222222222222222,0,0,0.07222222222222222,136.9333333333333,0)" xlink:href="#aL"/></g><g id="M"><use transform="matrix(0.07222222222222222,0,0,0.07222222222222222,0,0)" xlink:href="#W"/><use transform="matrix(0.07222222222222222,0,0,0.07222222222222222,17.333333333333332,0)" xlink:href="#Y"/><use transform="matrix(0.07222222222222222,0,0,0.07222222222222222,31.777777777777775,0)" xlink:href="#Z"/><use transform="matrix(0.07222222222222222,0,0,0.07222222222222222,44.77777777777777,0)" xlink:href="#aj"/><use transform="matrix(0.07222222222222222,0,0,0.07222222222222222,53.372222222222206,0)" xlink:href="#Y"/><use transform="matrix(0.07222222222222222,0,0,0.07222222222222222,67.81666666666666,0)" xlink:href="#ah"/></g><g id="N"><use transform="matrix(0.07222222222222222,0,0,0.07222222222222222,0,0)" xlink:href="#aP"/><use transform="matrix(0.07222222222222222,0,0,0.07222222222222222,21.59444444444444,0)" xlink:href="#ab"/><use transform="matrix(0.07222222222222222,0,0,0.07222222222222222,36.038888888888884,0)" xlink:href="#ag"/><use transform="matrix(0.07222222222222222,0,0,0.07222222222222222,50.48333333333333,0)" xlink:href="#ab"/><use transform="matrix(0.07222222222222222,0,0,0.07222222222222222,64.92777777777778,0)" xlink:href="#aA"/><use transform="matrix(0.07222222222222222,0,0,0.07222222222222222,79.37222222222222,0)" xlink:href="#Y"/><use transform="matrix(0.07222222222222222,0,0,0.07222222222222222,93.81666666666666,0)" xlink:href="#af"/><use transform="matrix(0.07222222222222222,0,0,0.07222222222222222,115.4111111111111,0)" xlink:href="#Y"/><use transform="matrix(0.07222222222222222,0,0,0.07222222222222222,129.85555555555555,0)" xlink:href="#ag"/><use transform="matrix(0.07222222222222222,0,0,0.07222222222222222,144.3,0)" xlink:href="#ah"/></g><g id="O"><use transform="matrix(0.07222222222222222,0,0,0.07222222222222222,0,0)" xlink:href="#aD"/><use transform="matrix(0.07222222222222222,0,0,0.07222222222222222,17.333333333333332,0)" xlink:href="#af"/><use transform="matrix(0.07222222222222222,0,0,0.07222222222222222,38.92777777777778,0)" xlink:href="#aM"/><use transform="matrix(0.07222222222222222,0,0,0.07222222222222222,53.37222222222222,0)" xlink:href="#Y"/><use transform="matrix(0.07222222222222222,0,0,0.07222222222222222,67.81666666666666,0)" xlink:href="#aQ"/><use transform="matrix(0.07222222222222222,0,0,0.07222222222222222,82.2611111111111,0)" xlink:href="#aQ"/><use transform="matrix(0.07222222222222222,0,0,0.07222222222222222,96.70555555555555,0)" xlink:href="#aa"/><use transform="matrix(0.07222222222222222,0,0,0.07222222222222222,102.4111111111111,0)" xlink:href="#ag"/><use transform="matrix(0.07222222222222222,0,0,0.07222222222222222,116.85555555555554,0)" xlink:href="#aA"/></g></defs></g></svg>